<svg width="160" height="160" viewBox="0 0 160 160" fill="none" xmlns="http://www.w3.org/2000/svg">
<circle cx="63.388" cy="63.388" r="61.1023" transform="matrix(1 0 0 -1 33.224 126.776)" fill="#F8F8F8" stroke="#E0C922" stroke-width="4.57143"/>
<circle cx="51.1475" cy="51.1475" r="51.1475" transform="matrix(1 0 0 -1 45.4645 114.536)" fill="#E0C922"/>
<circle cx="36.7213" cy="36.7213" r="36.7213" transform="matrix(1 0 0 -1 59.8907 100.109)" fill="#F8F8F8"/>
<circle cx="26.2295" cy="26.2295" r="26.2295" transform="matrix(1 0 0 -1 70.3825 89.6174)" fill="#E0C922"/>
<path d="M70.3825 63.3879C70.3825 66.8324 71.061 70.2432 72.3791 73.4255C73.6973 76.6078 75.6293 79.4994 78.065 81.935C80.5006 84.3706 83.3921 86.3027 86.5744 87.6208C89.7568 88.939 93.1675 89.6174 96.612 89.6174C100.057 89.6174 103.467 88.939 106.65 87.6208C109.832 86.3027 112.723 84.3706 115.159 81.935C117.595 79.4993 119.527 76.6078 120.845 73.4255C122.163 70.2432 122.842 66.8324 122.842 63.3879" stroke="#111111" stroke-width="2.66667" stroke-linecap="round"/>
<path d="M24.2624 30.8197L38.7008 37.1585M96.6122 62.9508L93.3335 64.918M96.6122 62.9508L96.175 59.0164M96.6122 62.9508L38.7008 37.1585M38.0329 25.3552L38.7008 37.1585M38.7008 37.1585L30.6012 45.4645M22.7324 42.1858L26.8854 38.9071M33.4427 31.9126L32.3498 23.388M16.175 38.9071L4.3717 36.2841L16.175 28.8525L12.6777 14.4262L27.9783 19.8907V25.3552" stroke="#111111" stroke-width="2.66667" stroke-linecap="round" stroke-linejoin="round"/>
<path d="M17.4862 88.7431L9.39874 92.8961L17.4862 97.9235L15.0818 106.011L21.202 104.262M22.0763 95.5191L31.4752 91.1196M42.6228 85.9016V88.306M42.6228 85.9016L40.437 84.3715M42.6228 85.9016L33.7505 90.0546M33.7505 90.0546L34.3168 92.8961M33.7505 90.0546L31.4752 91.1196M27.7594 87.6502L31.4752 91.1196M31.4752 99.0164V94.8634M26.8851 98.3606L27.7594 102.732M22.0763 88.7431L25.1364 91.1196" stroke="#111111" stroke-width="2.66667" stroke-linecap="round" stroke-linejoin="round"/>
<path d="M77.8143 138.579L86.7256 129.836M112.568 104.481H109.29M112.568 104.481V108.415M112.568 104.481L86.7256 129.836M90.2733 140.328L86.7256 129.836M86.7256 129.836H79.5629M75.8471 133.115L77.1586 133.552M83.4973 140.328L83.9345 143.388M79.1258 143.388V150.601M73.0055 135.301L64.481 140.765L74.317 142.076L70.6012 150.601" stroke="#111111" stroke-width="2.66667" stroke-linecap="round" stroke-linejoin="round"/>
<path d="M98.7978 56.1749H100.109M104.481 56.8306L108.415 57.4863M104.481 52.6776H105.792" stroke="#111111" stroke-width="2.66667" stroke-linecap="round" stroke-linejoin="round"/>
<path d="M125.683 36.7213L135.301 26.6667M127.432 44.153L144.044 29.2896M131.366 51.5847L147.104 39.1257M142.514 57.9235L136.393 46.3388M136.831 62.5137L129.836 48.5246M147.104 51.5847L147.978 50.7104" stroke="#111111" stroke-width="2.66667" stroke-linecap="round" stroke-linejoin="round"/>
<path d="M64.0438 108.197L80.8744 89.6174M76.2842 114.754L82.1294 107.104M91.1476 95.3005L82.1294 107.104M65.3552 95.9562L82.1294 107.104M70.3826 90.4918L83.2787 98.142M92.0219 104.044L93.552 105.137" stroke="#111111" stroke-width="2.66667" stroke-linecap="round" stroke-linejoin="round"/>
</svg>
