<svg width="459" height="304" viewBox="0 0 459 304" fill="none" xmlns="http://www.w3.org/2000/svg">
<g opacity="0.3" clip-path="url(#clip0_56_1448)">
<mask id="mask0_56_1448" style="mask-type:luminance" maskUnits="userSpaceOnUse" x="-21" y="-196" width="501" height="500">
<path d="M479.333 -196H-20.6666V304H479.333V-196Z" fill="white"/>
</mask>
<g mask="url(#mask0_56_1448)">
<mask id="mask1_56_1448" style="mask-type:luminance" maskUnits="userSpaceOnUse" x="354" y="-196" width="376" height="375">
<path d="M729.333 -196H354.333V179H729.333V-196Z" fill="white"/>
</mask>
<g mask="url(#mask1_56_1448)">
<mask id="mask2_56_1448" style="mask-type:luminance" maskUnits="userSpaceOnUse" x="354" y="-9" width="188" height="188">
<path d="M541.833 -8.5H354.333V179H541.833V-8.5Z" fill="white"/>
</mask>
<g mask="url(#mask2_56_1448)">
<path d="M401.281 49.439L375.216 73.499L388.248 79.514L410.304 72.497" stroke="#00D291" stroke-width="4.0101" stroke-miterlimit="10" stroke-linecap="round" stroke-linejoin="round"/>
<path d="M372.869 135.625L376.087 139.963L381.207 141.682L378.075 146.083L378.022 151.483L372.869 149.865L367.717 151.483L367.663 146.083L364.532 141.682L369.652 139.963L372.869 135.625Z" fill="white"/>
<path d="M384.776 95.994L387.572 99.763L392.021 101.258L389.3 105.082L389.254 109.776L384.776 108.37L380.297 109.776L380.251 105.082L377.53 101.258L381.979 99.763L384.776 95.994Z" fill="#FFE3F2"/>
<path d="M464.045 53.48L466.847 58.097L471.785 60.284L468.26 64.375L467.706 69.747L462.725 67.659L457.445 68.792L457.892 63.41L455.183 58.738L460.44 57.5L464.045 53.48Z" fill="white"/>
<path d="M378.477 10.9241L383.75 12.0941L388.744 10.0391L389.262 15.4151L392.76 19.5301L387.807 21.6831L384.974 26.2811L381.395 22.2361L376.147 20.9631L378.888 16.3101L378.477 10.9241Z" fill="#BD3D38"/>
<path d="M442.422 3.42598L445.733 3.84299L448.689 2.29199L449.316 5.57098L451.704 7.90298L448.779 9.51198L447.299 12.504L444.866 10.219L441.563 9.73698L442.983 6.71599L442.422 3.42598Z" fill="#FFB126"/>
<path d="M398.057 28.842L401.369 29.26L404.325 27.709L404.951 30.988L407.339 33.32L404.415 34.928L402.935 37.92L400.501 35.636L397.198 35.153L398.619 32.133L398.057 28.842Z" fill="#FFB126"/>
<path d="M417.845 14.973C417.845 16.733 416.418 18.16 414.658 18.16C412.898 18.16 411.471 16.733 411.471 14.973C411.471 13.213 412.898 11.786 414.658 11.786C416.418 11.786 417.845 13.213 417.845 14.973Z" fill="white"/>
<path d="M415.883 123.343C415.72 125.095 414.167 126.384 412.415 126.221C410.663 126.058 409.374 124.505 409.537 122.753C409.7 121.001 411.253 119.712 413.005 119.875C414.757 120.038 416.046 121.591 415.883 123.343Z" fill="#FFB126"/>
<path d="M403.91 110.979C403.747 112.731 402.194 114.02 400.442 113.857C398.69 113.694 397.401 112.141 397.564 110.389C397.727 108.637 399.28 107.348 401.032 107.511C402.785 107.673 404.073 109.226 403.91 110.979Z" fill="#FFE3F2"/>
<path d="M358.005 18.4549C357.842 20.2069 356.289 21.4959 354.537 21.3329C352.785 21.1699 351.496 19.6169 351.66 17.8649C351.823 16.1129 353.376 14.8239 355.128 14.9879C356.879 15.1499 358.168 16.7029 358.005 18.4549Z" fill="#00D291"/>
<path d="M318.417 49.573L353.84 38.658L366.538 52.7599" stroke="#FFB126" stroke-width="5.0126" stroke-miterlimit="10" stroke-linecap="round" stroke-linejoin="round"/>
<path d="M338.066 113.668L354.832 121.019L366.538 95.3719L354.832 77.0759" stroke="#00D291" stroke-width="4.0101" stroke-miterlimit="10" stroke-linecap="round" stroke-linejoin="round"/>
<path d="M427.92 -2.54602L446.633 45.24H416.57" stroke="#BD3D38" stroke-width="4.0101" stroke-miterlimit="10" stroke-linecap="round" stroke-linejoin="round"/>
<path d="M291.718 167.915L314.276 180.502L332.932 152.057L351.645 156.958" stroke="#FFB126" stroke-width="5.0126" stroke-miterlimit="10" stroke-linecap="round" stroke-linejoin="round"/>
<path d="M453.117 36.974L458.369 14.9731L485.649 11.786L497.033 -1.85596" stroke="white" stroke-width="4.0101" stroke-miterlimit="10" stroke-linecap="round" stroke-linejoin="round"/>
<path d="M347.826 -1.85599L384.776 -3.42798L397.55 4.51701" stroke="white" stroke-width="4.0101" stroke-miterlimit="10" stroke-linecap="round" stroke-linejoin="round"/>
<path d="M461.542 0.839954C461.379 2.59195 459.826 3.88095 458.074 3.71695C456.322 3.55395 455.033 2.00095 455.196 0.24895C455.359 -1.50305 456.912 -2.79204 458.664 -2.62904C460.417 -2.46504 461.705 -0.913046 461.542 0.839954Z" fill="#FFB126"/>
<path d="M437.961 76.16C437.798 77.912 436.245 79.201 434.493 79.038C432.741 78.875 431.452 77.322 431.615 75.57C431.778 73.818 433.331 72.529 435.083 72.692C436.836 72.855 438.124 74.408 437.961 76.16Z" fill="#FFB126"/>
<path d="M427.7 85.642C427.537 87.394 425.984 88.683 424.232 88.52C422.48 88.357 421.191 86.8041 421.354 85.0521C421.517 83.3001 423.07 82.0111 424.822 82.1741C426.575 82.3371 427.864 83.889 427.7 85.642Z" fill="#FFE3F2"/>
<path d="M458.369 184.034L424.622 143.265L446.277 130.566L461.556 143.265" stroke="#BD3D38" stroke-width="3.5289" stroke-miterlimit="10" stroke-linecap="round" stroke-linejoin="round"/>
<path d="M332.396 179.356H374.56L381.238 167.736L408.098 179.356" stroke="#FFB126" stroke-width="5.0126" stroke-miterlimit="10" stroke-linecap="round" stroke-linejoin="round"/>
<path d="M400.773 89.798L424.527 111.853L437.513 101.673L453.117 116.866" stroke="white" stroke-width="4.0101" stroke-miterlimit="10" stroke-linecap="round" stroke-linejoin="round"/>
<path d="M453.117 89.798L477.635 110.516L495.297 103.332L500.43 110.516H516.114" stroke="#00D291" stroke-width="4.0101" stroke-miterlimit="10" stroke-linecap="round" stroke-linejoin="round"/>
<path d="M383.43 126.746L403.684 131.862L400.59 159.821" stroke="#00D291" stroke-width="4.0101" stroke-miterlimit="10" stroke-linecap="round" stroke-linejoin="round"/>
</g>
<path d="M414.626 -13.792L417.421 -9.18698L422.347 -7.00499L418.83 -2.92398L418.278 2.43501L413.31 0.351013L408.043 1.48201L408.489 -3.88698L405.786 -8.54698L411.03 -9.78099L414.626 -13.792Z" fill="#FFE3F2"/>
<path d="M422.693 159.349L424.42 162.195L427.465 163.543L425.291 166.065L424.95 169.377L421.879 168.09L418.624 168.788L418.9 165.47L417.229 162.59L420.47 161.827L422.693 159.349Z" fill="#FFE3F2"/>
</g>
</g>
<mask id="mask3_56_1448" style="mask-type:luminance" maskUnits="userSpaceOnUse" x="-21" y="-196" width="501" height="500">
<path d="M479.333 -196H-20.6666V304H479.333V-196Z" fill="white"/>
</mask>
<g mask="url(#mask3_56_1448)">
<mask id="mask4_56_1448" style="mask-type:luminance" maskUnits="userSpaceOnUse" x="354" y="179" width="376" height="375">
<path d="M729.333 179H354.333V554H729.333V179Z" fill="white"/>
</mask>
<g mask="url(#mask4_56_1448)">
<mask id="mask5_56_1448" style="mask-type:luminance" maskUnits="userSpaceOnUse" x="354" y="179" width="188" height="188">
<path d="M541.833 179H354.333V366.5H541.833V179Z" fill="white"/>
</mask>
<g mask="url(#mask5_56_1448)">
<path d="M291.718 167.915L314.276 180.502L332.932 152.057L351.645 156.958" stroke="#FFB126" stroke-width="5.0126" stroke-miterlimit="10" stroke-linecap="round" stroke-linejoin="round"/>
<path d="M430.005 268.414L431.737 271.268L434.788 272.62L432.61 275.148L432.267 278.468L429.189 277.177L425.926 277.878L426.202 274.552L424.527 271.664L427.776 270.899L430.005 268.414Z" fill="#FFE3F2"/>
<path d="M451.289 284.573L454.091 289.19L459.029 291.377L455.503 295.468L454.949 300.84L449.969 298.752L444.689 299.885L445.136 294.503L442.426 289.831L447.683 288.594L451.289 284.573Z" fill="white"/>
<path d="M443.528 259.84L475.154 281.914L506.214 275.241" stroke="#00D291" stroke-width="4.0101" stroke-miterlimit="10" stroke-linecap="round" stroke-linejoin="round"/>
<path d="M446.613 206.298L469.427 231.277L477.942 213.604L502.283 225.333" stroke="#FFB126" stroke-width="5.0126" stroke-miterlimit="10" stroke-linecap="round" stroke-linejoin="round"/>
<path d="M459.476 242.763C459.313 244.515 457.76 245.804 456.008 245.641C454.256 245.478 452.967 243.925 453.13 242.173C453.293 240.421 454.846 239.132 456.598 239.296C458.351 239.458 459.639 241.011 459.476 242.763Z" fill="#FFB126"/>
<path d="M464.729 255.094C464.566 256.846 463.013 258.135 461.261 257.972C459.509 257.809 458.22 256.256 458.383 254.504C458.546 252.752 460.099 251.463 461.851 251.626C463.604 251.789 464.892 253.341 464.729 255.094Z" fill="#FFE3F2"/>
<path d="M424.527 213.05L443.086 229.62L429.658 239.281L406.158 220.125" stroke="#00D291" stroke-width="4.0101" stroke-miterlimit="10" stroke-linecap="round" stroke-linejoin="round"/>
<path d="M458.369 184.034L424.622 143.265L446.277 130.566L461.556 143.265" stroke="#BD3D38" stroke-width="3.5289" stroke-miterlimit="10" stroke-linecap="round" stroke-linejoin="round"/>
<path d="M332.396 179.356H374.56L381.238 167.736L408.098 179.356" stroke="#FFB126" stroke-width="5.0126" stroke-miterlimit="10" stroke-linecap="round" stroke-linejoin="round"/>
<path d="M382.055 290.347L406.158 323.456" stroke="#00D291" stroke-width="4.0101" stroke-miterlimit="10" stroke-linecap="round" stroke-linejoin="round"/>
<path d="M408.098 290.207L433.736 319.117L442.758 320.3L463.484 337.955" stroke="#BD3D38" stroke-width="3.5289" stroke-miterlimit="10" stroke-linecap="round" stroke-linejoin="round"/>
<path d="M381.238 234.233L398.996 248.975L409.564 240.897L418.96 250.833" stroke="#BD3D38" stroke-width="4.0101" stroke-miterlimit="10" stroke-linecap="round" stroke-linejoin="round"/>
<path d="M319.419 272.696L344.281 286.831L362.062 319.351L384.776 327.727" stroke="#FFB126" stroke-width="5.0126" stroke-miterlimit="10" stroke-linecap="round" stroke-linejoin="round"/>
<path d="M336.801 259.027L361.343 276.599L375.364 258.595L396.715 278.885" stroke="white" stroke-width="4.0101" stroke-miterlimit="10" stroke-linecap="round" stroke-linejoin="round"/>
<path d="M366.758 205.686L396.715 197.553L408.098 205.686L434.788 184.034" stroke="white" stroke-width="4.0101" stroke-miterlimit="10" stroke-linecap="round" stroke-linejoin="round"/>
<path d="M300.85 239.281L352.097 242.533L364.532 220.793H381.238" stroke="#00D291" stroke-width="4.0101" stroke-miterlimit="10" stroke-linecap="round" stroke-linejoin="round"/>
</g>
<path d="M382.661 183.554L385.912 184.275L388.991 183.008L389.31 186.322L391.466 188.859L388.413 190.186L386.666 193.021L384.46 190.527L381.225 189.742L382.915 186.874L382.661 183.554Z" fill="white"/>
<path d="M417.231 262.324C417.068 264.072 415.519 265.357 413.771 265.194C412.023 265.031 410.738 263.482 410.901 261.734C411.064 259.986 412.613 258.701 414.361 258.864C416.109 259.027 417.394 260.576 417.231 262.324Z" fill="#FFE3F2"/>
<path d="M417.231 276.224C417.068 277.972 415.519 279.257 413.771 279.094C412.023 278.931 410.738 277.382 410.901 275.634C411.064 273.886 412.613 272.601 414.361 272.764C416.109 272.927 417.394 274.475 417.231 276.224Z" fill="#00D291"/>
</g>
</g>
<mask id="mask6_56_1448" style="mask-type:luminance" maskUnits="userSpaceOnUse" x="-21" y="-196" width="501" height="500">
<path d="M479.333 -196H-20.6666V304H479.333V-196Z" fill="white"/>
</mask>
<g mask="url(#mask6_56_1448)">
<mask id="mask7_56_1448" style="mask-type:luminance" maskUnits="userSpaceOnUse" x="-21" y="-196" width="376" height="375">
<path d="M354.333 -196H-20.6666V179H354.333V-196Z" fill="white"/>
</mask>
<g mask="url(#mask7_56_1448)">
<mask id="mask8_56_1448" style="mask-type:luminance" maskUnits="userSpaceOnUse" x="166" y="-9" width="189" height="188">
<path d="M354.333 -8.5H166.833V179H354.333V-8.5Z" fill="white"/>
</mask>
<g mask="url(#mask8_56_1448)">
<path d="M216.301 47.1121L227.328 67.6631L238.356 54.1291L250.386 67.6631" stroke="#FFB126" stroke-width="5.0126" stroke-miterlimit="10" stroke-linecap="round" stroke-linejoin="round"/>
<path d="M180.21 171.022L206.275 146.961L224.321 158.991L242.366 146.961" stroke="#00D291" stroke-width="4.0101" stroke-miterlimit="10" stroke-linecap="round" stroke-linejoin="round"/>
<path d="M200.285 123.289L202.017 126.142L205.069 127.494L202.89 130.022L202.548 133.342L199.469 132.052L196.206 132.752L196.482 129.426L194.808 126.538L198.057 125.773L200.285 123.289Z" fill="#FFE3F2"/>
<path d="M260.329 150.687L262.318 153.368L265.482 154.431L263.547 157.15L263.514 160.488L260.329 159.488L257.145 160.488L257.112 157.15L255.177 154.431L258.341 153.368L260.329 150.687Z" fill="#FFE3F2"/>
<path d="M218.806 169.419L221.608 174.036L226.546 176.223L223.021 180.314L222.467 185.686L217.487 183.598L212.206 184.731L212.653 179.349L209.944 174.677L215.201 173.439L218.806 169.419Z" fill="#FFE3F2"/>
<path d="M299.98 32.1069L302.782 36.7239L307.72 38.9109L304.195 43.0019L303.641 48.3739L298.66 46.2859L293.38 47.4189L293.827 42.0369L291.118 37.3649L296.375 36.1279L299.98 32.1069Z" fill="white"/>
<path d="M329.239 77.551L332.497 78.274L335.584 77.004L335.904 80.326L338.066 82.869L335.004 84.2L333.254 87.042L331.042 84.542L327.798 83.755L329.493 80.879L329.239 77.551Z" fill="#FFB126"/>
<path d="M274.932 50.4871L306.558 72.5611L337.619 65.8881" stroke="#BD3D38" stroke-width="3.5289" stroke-miterlimit="10" stroke-linecap="round" stroke-linejoin="round"/>
<path d="M183.218 57.387L224.822 91.222" stroke="white" stroke-width="4.0101" stroke-miterlimit="10" stroke-linecap="round" stroke-linejoin="round"/>
<path d="M199.938 40.161C199.938 41.921 198.511 43.348 196.751 43.348C194.991 43.348 193.564 41.921 193.564 40.161C193.564 38.401 194.991 36.974 196.751 36.974C198.511 36.974 199.938 38.401 199.938 40.161Z" fill="#FFB126"/>
<path d="M286.714 1.33006C286.714 3.09006 285.287 4.51706 283.527 4.51706C281.767 4.51706 280.34 3.09006 280.34 1.33006C280.34 -0.429937 281.767 -1.85693 283.527 -1.85693C285.287 -1.85593 286.714 -0.429937 286.714 1.33006Z" fill="#FFB126"/>
<path d="M264.955 19.1321C264.792 20.8841 263.239 22.173 261.487 22.01C259.735 21.847 258.446 20.2941 258.609 18.5421C258.772 16.7901 260.325 15.5011 262.077 15.6641C263.83 15.8261 265.118 17.3791 264.955 19.1321Z" fill="#FFB126"/>
<path d="M330.971 98.854C330.808 100.606 329.255 101.895 327.503 101.732C325.751 101.569 324.462 100.016 324.625 98.264C324.788 96.512 326.341 95.223 328.093 95.386C329.846 95.548 331.134 97.101 330.971 98.854Z" fill="#FFE3F2"/>
<path d="M358.005 18.4549C357.842 20.2069 356.289 21.4959 354.537 21.3329C352.785 21.1699 351.496 19.6169 351.66 17.8649C351.823 16.1129 353.376 14.8239 355.128 14.9879C356.879 15.1499 358.168 16.7029 358.005 18.4549Z" fill="#00D291"/>
<path d="M243.795 177.848C243.632 179.6 242.079 180.889 240.327 180.726C238.575 180.563 237.286 179.01 237.449 177.258C237.612 175.506 239.165 174.217 240.917 174.38C242.67 174.543 243.959 176.095 243.795 177.848Z" fill="#00D291"/>
<path d="M253.573 85.959C253.573 87.719 252.146 89.146 250.386 89.146C248.626 89.146 247.199 87.719 247.199 85.959C247.199 84.199 248.626 82.772 250.386 82.772C252.146 82.773 253.573 84.199 253.573 85.959Z" fill="#00D291"/>
<path d="M317.462 89.941C317.462 91.701 316.035 93.128 314.275 93.128C312.515 93.128 311.088 91.701 311.088 89.941C311.088 88.181 312.515 86.754 314.275 86.754C316.035 86.754 317.462 88.181 317.462 89.941Z" fill="#00D291"/>
<path d="M171.856 116.285L177.203 128.315L187.138 116.285" stroke="#FFB126" stroke-width="5.0126" stroke-miterlimit="10" stroke-linecap="round" stroke-linejoin="round"/>
<path d="M171.856 26.059L199.938 20.745L211.288 26.059" stroke="#00D291" stroke-width="4.0101" stroke-miterlimit="10" stroke-linecap="round" stroke-linejoin="round"/>
<path d="M318.417 49.573L353.84 38.658L366.538 52.7599" stroke="#FFB126" stroke-width="5.0126" stroke-miterlimit="10" stroke-linecap="round" stroke-linejoin="round"/>
<path d="M260.329 131.713L286.119 150.343L314.276 147.157L267.575 101.745" stroke="white" stroke-width="4.0101" stroke-miterlimit="10" stroke-linecap="round" stroke-linejoin="round"/>
<path d="M247.194 98.8149V117.994L218.204 126.683" stroke="#FFB126" stroke-width="5.0126" stroke-miterlimit="10" stroke-linecap="round" stroke-linejoin="round"/>
<path d="M338.066 113.668L354.832 121.019L366.538 95.3719L354.832 77.0759" stroke="#00D291" stroke-width="4.0101" stroke-miterlimit="10" stroke-linecap="round" stroke-linejoin="round"/>
<path d="M291.718 167.915L314.276 180.502L332.932 152.057L351.645 156.958" stroke="#FFB126" stroke-width="5.0126" stroke-miterlimit="10" stroke-linecap="round" stroke-linejoin="round"/>
<path d="M295.801 23.622L319.383 8.89697L338.444 26.786" stroke="#BD3D38" stroke-width="3.5289" stroke-miterlimit="10" stroke-linecap="round" stroke-linejoin="round"/>
<path d="M347.826 -1.85599L384.776 -3.42798L397.55 4.51701" stroke="white" stroke-width="4.0101" stroke-miterlimit="10" stroke-linecap="round" stroke-linejoin="round"/>
<path d="M237.656 1.62595C237.493 3.37795 235.94 4.66694 234.188 4.50394C232.436 4.34094 231.147 2.78794 231.31 1.03594C231.473 -0.716062 233.026 -2.00505 234.778 -1.84205C236.531 -1.68005 237.819 -0.127051 237.656 1.62595Z" fill="#00D291"/>
<path d="M332.396 179.356H374.56L381.238 167.736L408.098 179.356" stroke="#FFB126" stroke-width="5.0126" stroke-miterlimit="10" stroke-linecap="round" stroke-linejoin="round"/>
<path d="M177.203 91.2219L196.25 104.255L206.025 95.2319L216.301 104.255" stroke="#BD3D38" stroke-width="4.0101" stroke-miterlimit="10" stroke-linecap="round" stroke-linejoin="round"/>
<path d="M183.218 6.00896L220.645 1.32996L233.343 36.974L247.379 32.742L261.782 40.1609" stroke="#BD3D38" stroke-width="4.0101" stroke-miterlimit="10" stroke-linecap="round" stroke-linejoin="round"/>
<path d="M250.565 8.68196L270.119 1.32996L283.527 26.059" stroke="#00D291" stroke-width="4.0101" stroke-miterlimit="10" stroke-linecap="round" stroke-linejoin="round"/>
<path d="M267.575 79.636L292.438 93.77L310.218 126.291L332.932 134.666" stroke="#FFB126" stroke-width="5.0126" stroke-miterlimit="10" stroke-linecap="round" stroke-linejoin="round"/>
</g>
<path d="M276.053 56.001L277.78 58.847L280.825 60.195L278.651 62.718L278.31 66.03L275.239 64.742L271.984 65.441L272.26 62.123L270.589 59.243L273.83 58.48L276.053 56.001Z" fill="#FFE3F2"/>
<mask id="mask9_56_1448" style="mask-type:luminance" maskUnits="userSpaceOnUse" x="-21" y="-9" width="188" height="188">
<path d="M166.833 -8.5H-20.6666V179H166.833V-8.5Z" fill="white"/>
</mask>
<g mask="url(#mask9_56_1448)">
<path d="M26.2814 49.439L0.21637 73.499L13.2484 79.514L35.3044 72.497" stroke="#00D291" stroke-width="4.0101" stroke-miterlimit="10" stroke-linecap="round" stroke-linejoin="round"/>
<path d="M-2.13062 135.625L1.08738 139.963L6.20738 141.682L3.07538 146.083L3.02238 151.483L-2.13062 149.865L-7.28262 151.483L-7.33662 146.083L-10.4676 141.682L-5.34762 139.963L-2.13062 135.625Z" fill="white"/>
<path d="M9.77539 95.994L12.5724 99.763L17.0214 101.258L14.3004 105.082L14.2544 109.776L9.77539 108.37L5.2974 109.776L5.25139 105.082L2.5304 101.258L6.97939 99.763L9.77539 95.994Z" fill="#FFE3F2"/>
<path d="M89.0454 53.48L91.8474 58.097L96.7854 60.284L93.2604 64.375L92.7064 69.747L87.7254 67.659L82.4454 68.792L82.8924 63.41L80.1834 58.738L85.4404 57.5L89.0454 53.48Z" fill="white"/>
<path d="M3.47737 10.9241L8.75037 12.0941L13.7444 10.0391L14.2624 15.4151L17.7604 19.5301L12.8074 21.6831L9.97437 26.2811L6.39537 22.2361L1.14737 20.9631L3.88837 16.3101L3.47737 10.9241Z" fill="#BD3D38"/>
<path d="M67.4224 3.42598L70.7334 3.84299L73.6894 2.29199L74.3164 5.57098L76.7044 7.90298L73.7794 9.51198L72.2994 12.504L69.8664 10.219L66.5634 9.73698L67.9834 6.71599L67.4224 3.42598Z" fill="#FFB126"/>
<path d="M23.0574 28.842L26.3694 29.26L29.3254 27.709L29.9514 30.988L32.3394 33.32L29.4154 34.928L27.9354 37.92L25.5014 35.636L22.1984 35.153L23.6194 32.133L23.0574 28.842Z" fill="#FFB126"/>
<path d="M42.8464 14.973C42.8464 16.733 41.4194 18.16 39.6594 18.16C37.8994 18.16 36.4724 16.733 36.4724 14.973C36.4724 13.213 37.8994 11.786 39.6594 11.786C41.4194 11.786 42.8464 13.213 42.8464 14.973Z" fill="white"/>
<path d="M40.8834 123.343C40.7204 125.095 39.1674 126.384 37.4154 126.221C35.6634 126.058 34.3744 124.505 34.5384 122.753C34.7014 121.001 36.2544 119.712 38.0064 119.875C39.7574 120.038 41.0464 121.591 40.8834 123.343Z" fill="#FFB126"/>
<path d="M28.9104 110.979C28.7474 112.731 27.1944 114.02 25.4424 113.857C23.6904 113.694 22.4014 112.141 22.5644 110.389C22.7274 108.637 24.2804 107.348 26.0324 107.511C27.7854 107.673 29.0734 109.226 28.9104 110.979Z" fill="#FFE3F2"/>
<path d="M52.9204 -2.54602L71.6334 45.24H41.5704" stroke="#BD3D38" stroke-width="4.0101" stroke-miterlimit="10" stroke-linecap="round" stroke-linejoin="round"/>
<path d="M113.727 69.747L134.741 62.781L139.208 45.24" stroke="#00D291" stroke-width="4.0101" stroke-miterlimit="10" stroke-linecap="round" stroke-linejoin="round"/>
<path d="M78.1174 36.974L83.3694 14.9731L110.649 11.786L122.033 -1.85596" stroke="white" stroke-width="4.0101" stroke-miterlimit="10" stroke-linecap="round" stroke-linejoin="round"/>
<path d="M93.7864 32.815L115.782 50.678L130.564 21.347" stroke="#FFB126" stroke-width="5.0126" stroke-miterlimit="10" stroke-linecap="round" stroke-linejoin="round"/>
<path d="M134.741 11.292L158.997 10.33L161.299 36.709" stroke="#FFB126" stroke-width="5.0126" stroke-miterlimit="10" stroke-linecap="round" stroke-linejoin="round"/>
<path d="M-27.1736 -1.85599L9.77535 -3.42798L22.5504 4.51701" stroke="white" stroke-width="4.0101" stroke-miterlimit="10" stroke-linecap="round" stroke-linejoin="round"/>
<path d="M141.676 75.865L144.478 80.482L149.416 82.669L145.89 86.76L145.337 92.133L140.356 90.044L135.076 91.177L135.523 85.795L132.813 81.124L138.07 79.886L141.676 75.865Z" fill="white"/>
<path d="M116.603 85.326L119.862 86.0481L122.949 84.7781L123.269 88.1011L125.431 90.6441L122.369 91.9751L120.619 94.817L118.407 92.317L115.163 91.5301L116.857 88.6541L116.603 85.326Z" fill="#FFB126"/>
<path d="M106.955 122.92L110.214 123.643L113.301 122.373L113.62 125.695L115.782 128.238L112.721 129.569L110.97 132.411L108.759 129.911L105.515 129.124L107.209 126.248L106.955 122.92Z" fill="#FFB126"/>
<path d="M86.5424 0.839954C86.3794 2.59195 84.8264 3.88095 83.0744 3.71695C81.3224 3.55395 80.0334 2.00095 80.1964 0.24895C80.3594 -1.50305 81.9124 -2.79204 83.6644 -2.62904C85.4174 -2.46504 86.7054 -0.913046 86.5424 0.839954Z" fill="#FFB126"/>
<path d="M62.9614 76.16C62.7984 77.912 61.2454 79.201 59.4934 79.038C57.7414 78.875 56.4524 77.322 56.6154 75.57C56.7784 73.818 58.3314 72.529 60.0834 72.692C61.8364 72.855 63.1244 74.408 62.9614 76.16Z" fill="#FFB126"/>
<path d="M112.788 25.883C112.625 27.635 111.072 28.924 109.32 28.761C107.568 28.598 106.279 27.045 106.442 25.293C106.605 23.541 108.158 22.252 109.91 22.415C111.663 22.578 112.952 24.131 112.788 25.883Z" fill="#FFE3F2"/>
<path d="M52.7014 85.642C52.5384 87.394 50.9854 88.683 49.2334 88.52C47.4814 88.357 46.1924 86.8041 46.3554 85.0521C46.5184 83.3001 48.0714 82.0111 49.8234 82.1741C51.5754 82.3371 52.8644 83.889 52.7014 85.642Z" fill="#FFE3F2"/>
<path d="M96.9594 127.687C96.7964 129.439 95.2434 130.728 93.4914 130.565C91.7394 130.402 90.4504 128.849 90.6134 127.097C90.7764 125.345 92.3294 124.056 94.0814 124.219C95.8344 124.382 97.1224 125.935 96.9594 127.687Z" fill="#FFE3F2"/>
<path d="M100.146 146.747C99.9834 148.499 98.4304 149.788 96.6784 149.624C94.9264 149.461 93.6374 147.908 93.8004 146.156C93.9634 144.404 95.5164 143.115 97.2684 143.278C99.0204 143.442 100.309 144.995 100.146 146.747Z" fill="#00D291"/>
<path d="M122.896 203.363L90.6074 171.799L114.632 165.115L122.896 143.728" stroke="#00D291" stroke-width="4.0101" stroke-miterlimit="10" stroke-linecap="round" stroke-linejoin="round"/>
<path d="M126.947 176.014L147.509 179.356L153.279 143.265" stroke="#BD3D38" stroke-width="3.5289" stroke-miterlimit="10" stroke-linecap="round" stroke-linejoin="round"/>
<path d="M83.3694 184.034L49.6224 143.265L71.2774 130.566L86.5564 143.265" stroke="#BD3D38" stroke-width="3.5289" stroke-miterlimit="10" stroke-linecap="round" stroke-linejoin="round"/>
<path d="M-42.6036 179.356H-0.439636L6.23837 167.736L33.0984 179.356" stroke="#FFB126" stroke-width="5.0126" stroke-miterlimit="10" stroke-linecap="round" stroke-linejoin="round"/>
<path d="M25.7734 89.798L49.5284 111.853L62.5134 101.673L78.1174 116.866" stroke="white" stroke-width="4.0101" stroke-miterlimit="10" stroke-linecap="round" stroke-linejoin="round"/>
<path d="M78.1174 89.798L102.635 110.516L120.297 103.332L125.431 110.516H141.114" stroke="#00D291" stroke-width="4.0101" stroke-miterlimit="10" stroke-linecap="round" stroke-linejoin="round"/>
<path d="M8.43036 126.746L28.6844 131.862L25.5904 159.821" stroke="#00D291" stroke-width="4.0101" stroke-miterlimit="10" stroke-linecap="round" stroke-linejoin="round"/>
<path d="M134.741 152.25L140.113 122.586H155.811L161.299 98.486" stroke="#FFB126" stroke-width="5.0126" stroke-miterlimit="10" stroke-linecap="round" stroke-linejoin="round"/>
</g>
<path d="M39.6264 -13.792L42.4214 -9.18698L47.3474 -7.00499L43.8304 -2.92398L43.2784 2.43501L38.3104 0.351013L33.0434 1.48201L33.4894 -3.88698L30.7864 -8.54698L36.0304 -9.78099L39.6264 -13.792Z" fill="#FFE3F2"/>
<path d="M47.6934 159.349L49.4204 162.195L52.4654 163.543L50.2914 166.065L49.9504 169.377L46.8794 168.09L43.6244 168.788L43.9004 165.47L42.2294 162.59L45.4704 161.827L47.6934 159.349Z" fill="#FFE3F2"/>
<path d="M165.327 146.298L170.587 147.464L175.569 145.414L176.085 150.777L179.574 154.882L174.634 157.03L171.808 161.616L168.238 157.581L163.003 156.311L165.737 151.67L165.327 146.298Z" fill="#BD3D38"/>
<path d="M157.27 50.342C158.581 51.516 158.692 53.531 157.518 54.842C156.344 56.153 154.329 56.264 153.018 55.09C151.707 53.916 151.596 51.901 152.77 50.59C153.944 49.279 155.959 49.168 157.27 50.342Z" fill="#FFE3F2"/>
<path d="M171.416 56.855C172.727 58.029 172.838 60.044 171.664 61.355C170.49 62.666 168.475 62.777 167.164 61.603C165.853 60.429 165.742 58.414 166.916 57.103C168.09 55.791 170.105 55.68 171.416 56.855Z" fill="#00D291"/>
<path d="M170.379 75.6631C170.379 77.4231 168.952 78.8501 167.192 78.8501C165.432 78.8501 164.005 77.4231 164.005 75.6631C164.005 73.9031 165.432 72.4761 167.192 72.4761C168.952 72.4761 170.379 73.9031 170.379 75.6631Z" fill="#FFE3F2"/>
</g>
</g>
<mask id="mask10_56_1448" style="mask-type:luminance" maskUnits="userSpaceOnUse" x="-21" y="-196" width="501" height="500">
<path d="M479.333 -196H-20.6666V304H479.333V-196Z" fill="white"/>
</mask>
<g mask="url(#mask10_56_1448)">
<mask id="mask11_56_1448" style="mask-type:luminance" maskUnits="userSpaceOnUse" x="-21" y="179" width="376" height="375">
<path d="M354.333 179H-20.6666V554H354.333V179Z" fill="white"/>
</mask>
<g mask="url(#mask11_56_1448)">
<mask id="mask12_56_1448" style="mask-type:luminance" maskUnits="userSpaceOnUse" x="166" y="179" width="189" height="188">
<path d="M354.333 179H166.833V366.5H354.333V179Z" fill="white"/>
</mask>
<g mask="url(#mask12_56_1448)">
<path d="M218.806 169.419L221.608 174.036L226.546 176.223L223.021 180.314L222.467 185.686L217.487 183.598L212.206 184.731L212.653 179.349L209.944 174.677L215.201 173.439L218.806 169.419Z" fill="#FFE3F2"/>
<path d="M263.882 186.828L267.141 187.551L270.227 186.281L270.547 189.603L272.709 192.147L269.648 193.477L267.897 196.319L265.685 193.819L262.442 193.032L264.136 190.156L263.882 186.828Z" fill="#FFB126"/>
<path d="M194.127 297.533L197.439 297.95L200.395 296.4L201.021 299.678L203.409 302.01L200.485 303.619L199.005 306.611L196.571 304.326L193.269 303.844L194.689 300.823L194.127 297.533Z" fill="#BD3D38"/>
<path d="M243.795 177.848C243.632 179.6 242.079 180.889 240.327 180.726C238.575 180.563 237.286 179.01 237.449 177.258C237.612 175.506 239.165 174.217 240.917 174.38C242.67 174.543 243.959 176.095 243.795 177.848Z" fill="#00D291"/>
<path d="M219.474 255.094C219.311 256.846 217.758 258.135 216.006 257.972C214.254 257.809 212.965 256.256 213.128 254.504C213.291 252.752 214.844 251.463 216.596 251.626C218.348 251.789 219.637 253.341 219.474 255.094Z" fill="#00D291"/>
<path d="M274.517 265.525V303.621L300.088 284.573" stroke="white" stroke-width="4.0101" stroke-miterlimit="10" stroke-linecap="round" stroke-linejoin="round"/>
<path d="M234.483 262.577H256.192L266.647 245.2" stroke="#FFB126" stroke-width="5.0126" stroke-miterlimit="10" stroke-linecap="round" stroke-linejoin="round"/>
<path d="M291.718 167.915L314.276 180.502L332.932 152.057L351.645 156.958" stroke="#FFB126" stroke-width="5.0126" stroke-miterlimit="10" stroke-linecap="round" stroke-linejoin="round"/>
<path d="M342.278 301.874L344.01 304.728L347.062 306.079L344.883 308.608L344.541 311.928L341.463 310.638L338.199 311.338L338.476 308.012L336.801 305.124L340.05 304.359L342.278 301.874Z" fill="#FFE3F2"/>
<path d="M348.173 200.659L349.905 203.513L352.957 204.865L350.778 207.393L350.436 210.714L347.358 209.423L344.094 210.123L344.371 206.797L342.696 203.909L345.945 203.145L348.173 200.659Z" fill="#FFE3F2"/>
<path d="M180.772 303.795L183.573 308.412L188.511 310.599L184.986 314.69L184.432 320.062L179.452 317.974L174.171 319.107L174.618 313.725L171.909 309.053L177.166 307.815L180.772 303.795Z" fill="white"/>
<path d="M290.39 258.525L295.663 259.694L300.657 257.639L301.175 263.015L304.673 267.13L299.72 269.284L296.887 273.882L293.308 269.837L288.06 268.563L290.801 263.91L290.39 258.525Z" fill="#BD3D38"/>
<path d="M318.114 213.557L323.386 214.727L328.381 212.672L328.898 218.048L332.396 222.163L327.443 224.316L324.61 228.914L321.032 224.869L315.783 223.596L318.525 218.943L318.114 213.557Z" fill="#BD3D38"/>
<path d="M310.592 297.41L313.851 298.133L316.937 296.863L317.257 300.185L319.419 302.729L316.358 304.06L314.607 306.901L312.395 304.401L309.152 303.615L310.846 300.739L310.592 297.41Z" fill="#FFB126"/>
<path d="M180.375 262.135C180.212 263.887 178.659 265.176 176.907 265.013C175.155 264.85 173.866 263.297 174.029 261.545C174.192 259.793 175.745 258.504 177.497 258.667C179.25 258.83 180.539 260.383 180.375 262.135Z" fill="#FFB126"/>
<path d="M186.391 284.868C186.228 286.62 184.675 287.909 182.923 287.746C181.171 287.583 179.882 286.03 180.045 284.278C180.208 282.526 181.761 281.237 183.513 281.4C185.265 281.563 186.554 283.116 186.391 284.868Z" fill="#FFE3F2"/>
<path d="M191.684 269.035C191.521 270.787 189.968 272.076 188.216 271.913C186.464 271.75 185.175 270.197 185.338 268.445C185.501 266.693 187.054 265.404 188.806 265.567C190.559 265.73 191.847 267.283 191.684 269.035Z" fill="#00D291"/>
<path d="M332.396 179.356H374.56L381.238 167.736L408.098 179.356" stroke="#FFB126" stroke-width="5.0126" stroke-miterlimit="10" stroke-linecap="round" stroke-linejoin="round"/>
<path d="M319.419 272.696L344.281 286.831L362.062 319.351L384.776 327.727" stroke="#FFB126" stroke-width="5.0126" stroke-miterlimit="10" stroke-linecap="round" stroke-linejoin="round"/>
<path d="M336.801 259.027L361.343 276.599L375.364 258.595L396.715 278.885" stroke="white" stroke-width="4.0101" stroke-miterlimit="10" stroke-linecap="round" stroke-linejoin="round"/>
<path d="M300.85 239.281L352.097 242.533L364.532 220.793H381.238" stroke="#00D291" stroke-width="4.0101" stroke-miterlimit="10" stroke-linecap="round" stroke-linejoin="round"/>
<path d="M175.744 203.732L195.286 209.304L209.307 191.3L230.658 211.59" stroke="white" stroke-width="4.0101" stroke-miterlimit="10" stroke-linecap="round" stroke-linejoin="round"/>
<path d="M173.318 221.24L184.077 242.293L200.958 234.941" stroke="#00D291" stroke-width="4.0101" stroke-miterlimit="10" stroke-linecap="round" stroke-linejoin="round"/>
<path d="M250.188 205.231L279.746 220.151L282.932 200.552L314.276 205.231" stroke="#00D291" stroke-width="4.0101" stroke-miterlimit="10" stroke-linecap="round" stroke-linejoin="round"/>
<path d="M204.02 270.877L230.658 296.486L247.199 290.207L260.329 306.901" stroke="#BD3D38" stroke-width="4.0101" stroke-miterlimit="10" stroke-linecap="round" stroke-linejoin="round"/>
<path d="M209.944 245.2L232.699 242.533L243.809 228.914" stroke="#BD3D38" stroke-width="4.0101" stroke-miterlimit="10" stroke-linecap="round" stroke-linejoin="round"/>
</g>
<mask id="mask13_56_1448" style="mask-type:luminance" maskUnits="userSpaceOnUse" x="-21" y="179" width="188" height="188">
<path d="M166.833 179H-20.6666V366.5H166.833V179Z" fill="white"/>
</mask>
<g mask="url(#mask13_56_1448)">
<path d="M148.071 197.553L150.872 202.17L155.811 204.357L152.285 208.448L151.731 213.82L146.751 211.732L141.47 212.865L141.918 207.483L139.208 202.811L144.465 201.573L148.071 197.553Z" fill="#FFE3F2"/>
<path d="M55.0054 268.414L56.7374 271.268L59.7884 272.62L57.6104 275.148L57.2674 278.468L54.1894 277.177L50.9264 277.878L51.2024 274.552L49.5284 271.664L52.7764 270.899L55.0054 268.414Z" fill="#FFE3F2"/>
<path d="M76.2894 284.573L79.0914 289.19L84.0294 291.377L80.5034 295.468L79.9504 300.84L74.9694 298.752L69.6894 299.885L70.1364 294.503L67.4264 289.831L72.6834 288.594L76.2894 284.573Z" fill="white"/>
<path d="M107.751 246.653L113.023 247.822L118.018 245.767L118.535 251.143L122.033 255.258L117.08 257.411L114.247 262.009L110.669 257.964L105.42 256.691L108.162 252.038L107.751 246.653Z" fill="#BD3D38"/>
<path d="M121.737 297.033L124.996 297.756L128.083 296.486L128.402 299.808L130.564 302.352L127.503 303.682L125.752 306.524L123.541 304.024L120.297 303.237L121.991 300.361L121.737 297.033Z" fill="#FFB126"/>
<path d="M68.5284 259.84L100.154 281.914L131.214 275.241" stroke="#00D291" stroke-width="4.0101" stroke-miterlimit="10" stroke-linecap="round" stroke-linejoin="round"/>
<path d="M71.6134 206.298L94.4274 231.277L102.942 213.604L127.283 225.333" stroke="#FFB126" stroke-width="5.0126" stroke-miterlimit="10" stroke-linecap="round" stroke-linejoin="round"/>
<path d="M84.4764 242.763C84.3134 244.515 82.7604 245.804 81.0084 245.641C79.2564 245.478 77.9674 243.925 78.1304 242.173C78.2934 240.421 79.8464 239.132 81.5984 239.296C83.3514 239.458 84.6394 241.011 84.4764 242.763Z" fill="#FFB126"/>
<path d="M89.7294 255.094C89.5664 256.846 88.0134 258.135 86.2614 257.972C84.5094 257.809 83.2204 256.256 83.3834 254.504C83.5464 252.752 85.0994 251.463 86.8514 251.626C88.6044 251.789 89.8924 253.341 89.7294 255.094Z" fill="#FFE3F2"/>
<path d="M99.9584 307.197C99.7954 308.949 98.2424 310.238 96.4904 310.075C94.7384 309.912 93.4494 308.359 93.6124 306.607C93.7754 304.855 95.3284 303.566 97.0804 303.729C98.8334 303.892 100.121 305.444 99.9584 307.197Z" fill="#00D291"/>
<path d="M147.394 235.249C147.231 237.001 145.678 238.29 143.926 238.126C142.174 237.963 140.885 236.41 141.048 234.658C141.211 232.906 142.764 231.617 144.516 231.78C146.268 231.944 147.557 233.497 147.394 235.249Z" fill="#00D291"/>
<path d="M49.5284 213.05L68.0864 229.62L54.6584 239.281L31.1584 220.125" stroke="#00D291" stroke-width="4.0101" stroke-miterlimit="10" stroke-linecap="round" stroke-linejoin="round"/>
<path d="M122.896 203.363L90.6074 171.799L114.632 165.115L122.896 143.728" stroke="#00D291" stroke-width="4.0101" stroke-miterlimit="10" stroke-linecap="round" stroke-linejoin="round"/>
<path d="M126.947 176.014L147.509 179.356L153.279 143.265" stroke="#BD3D38" stroke-width="3.5289" stroke-miterlimit="10" stroke-linecap="round" stroke-linejoin="round"/>
<path d="M83.3694 184.034L49.6224 143.265L71.2774 130.566L86.5564 143.265" stroke="#BD3D38" stroke-width="3.5289" stroke-miterlimit="10" stroke-linecap="round" stroke-linejoin="round"/>
<path d="M-42.6036 179.356H-0.439636L6.23837 167.736L33.0984 179.356" stroke="#FFB126" stroke-width="5.0126" stroke-miterlimit="10" stroke-linecap="round" stroke-linejoin="round"/>
<path d="M7.05536 290.347L31.1584 323.456" stroke="#00D291" stroke-width="4.0101" stroke-miterlimit="10" stroke-linecap="round" stroke-linejoin="round"/>
<path d="M33.0984 290.207L58.7364 319.117L67.7584 320.3L88.4844 337.955" stroke="#BD3D38" stroke-width="3.5289" stroke-miterlimit="10" stroke-linecap="round" stroke-linejoin="round"/>
<path d="M6.23837 234.233L23.9964 248.975L34.5644 240.897L43.9604 250.833" stroke="#BD3D38" stroke-width="4.0101" stroke-miterlimit="10" stroke-linecap="round" stroke-linejoin="round"/>
<path d="M-55.5806 272.696L-30.7186 286.831L-12.9376 319.351L9.77538 327.727" stroke="#FFB126" stroke-width="5.0126" stroke-miterlimit="10" stroke-linecap="round" stroke-linejoin="round"/>
<path d="M-38.1986 259.027L-13.6566 276.599L0.364391 258.595L21.7154 278.885" stroke="white" stroke-width="4.0101" stroke-miterlimit="10" stroke-linecap="round" stroke-linejoin="round"/>
<path d="M-8.24164 205.686L21.7154 197.553L33.0984 205.686L59.7884 184.034" stroke="white" stroke-width="4.0101" stroke-miterlimit="10" stroke-linecap="round" stroke-linejoin="round"/>
<path d="M-74.1496 239.281L-22.9026 242.533L-10.4676 220.793H6.23837" stroke="#00D291" stroke-width="4.0101" stroke-miterlimit="10" stroke-linecap="round" stroke-linejoin="round"/>
</g>
<path d="M167.204 181L168.932 183.846L171.976 185.195L169.802 187.717L169.461 191.029L166.391 189.741L163.135 190.44L163.411 187.122L161.741 184.242L164.981 183.479L167.204 181Z" fill="#FFB126"/>
<path d="M7.66137 183.554L10.9124 184.275L13.9914 183.008L14.3104 186.322L16.4664 188.859L13.4134 190.186L11.6664 193.021L9.46037 190.527L6.22537 189.742L7.91537 186.874L7.66137 183.554Z" fill="white"/>
<path d="M86.5584 193.575L89.8094 194.296L92.8884 193.029L93.2074 196.343L95.3634 198.88L92.3104 200.207L90.5634 203.042L88.3574 200.548L85.1224 199.763L86.8124 196.895L86.5584 193.575Z" fill="#FFE3F2"/>
<path d="M42.2314 262.324C42.0684 264.072 40.5194 265.357 38.7724 265.194C37.0244 265.031 35.7394 263.482 35.9024 261.734C36.0654 259.986 37.6144 258.701 39.3624 258.864C41.1094 259.027 42.3944 260.576 42.2314 262.324Z" fill="#FFE3F2"/>
<path d="M42.2314 276.224C42.0684 277.972 40.5194 279.257 38.7724 279.094C37.0244 278.931 35.7394 277.382 35.9024 275.634C36.0654 273.886 37.6144 272.601 39.3624 272.764C41.1094 272.927 42.3944 274.475 42.2314 276.224Z" fill="#00D291"/>
<path d="M140.477 300.838L143.384 321.174L169.858 271.75L154.961 271.884" stroke="#BD3D38" stroke-width="3.5289" stroke-miterlimit="10" stroke-linecap="round" stroke-linejoin="round"/>
<path d="M135.607 252.03H158.047L163.168 231.03" stroke="#FFB126" stroke-width="5.0126" stroke-miterlimit="10" stroke-linecap="round" stroke-linejoin="round"/>
<path d="M179.574 193.029L196.145 183" stroke="#FFB126" stroke-width="5.0126" stroke-miterlimit="10" stroke-linecap="round" stroke-linejoin="round"/>
</g>
<mask id="mask14_56_1448" style="mask-type:luminance" maskUnits="userSpaceOnUse" x="-21" y="179" width="376" height="375">
<path d="M354.333 179H-20.6666V554H354.333V179Z" fill="white"/>
</mask>
<g mask="url(#mask14_56_1448)">
<path d="M254.607 223.794L259.88 224.963L264.874 222.908L265.392 228.284L268.889 232.399L263.936 234.553L261.104 239.151L257.525 235.106L252.277 233.832L255.018 229.179L254.607 223.794Z" fill="#FFB126"/>
</g>
<mask id="mask15_56_1448" style="mask-type:luminance" maskUnits="userSpaceOnUse" x="-21" y="179" width="376" height="375">
<path d="M354.333 179H-20.6666V554H354.333V179Z" fill="white"/>
</mask>
<g mask="url(#mask15_56_1448)">
<path d="M242.778 193.324C242.615 195.076 241.062 196.365 239.31 196.202C237.558 196.039 236.269 194.486 236.432 192.734C236.595 190.982 238.148 189.693 239.9 189.856C241.653 190.019 242.941 191.572 242.778 193.324Z" fill="#FFB126"/>
</g>
<mask id="mask16_56_1448" style="mask-type:luminance" maskUnits="userSpaceOnUse" x="-21" y="179" width="376" height="375">
<path d="M354.333 179H-20.6666V554H354.333V179Z" fill="white"/>
</mask>
<g mask="url(#mask16_56_1448)">
<path d="M215.778 223.204C215.615 224.956 214.062 226.245 212.31 226.082C210.558 225.919 209.269 224.366 209.432 222.614C209.595 220.862 211.148 219.573 212.9 219.736C214.653 219.899 215.941 221.451 215.778 223.204Z" fill="#FFE3F2"/>
</g>
<mask id="mask17_56_1448" style="mask-type:luminance" maskUnits="userSpaceOnUse" x="-21" y="179" width="376" height="375">
<path d="M354.333 179H-20.6666V554H354.333V179Z" fill="white"/>
</mask>
<g mask="url(#mask17_56_1448)">
<path d="M315.922 255.325C315.759 257.077 314.206 258.366 312.454 258.203C310.702 258.04 309.413 256.487 309.577 254.735C309.74 252.983 311.293 251.694 313.045 251.857C314.797 252.02 316.085 253.573 315.922 255.325Z" fill="white"/>
</g>
<mask id="mask18_56_1448" style="mask-type:luminance" maskUnits="userSpaceOnUse" x="-21" y="179" width="376" height="375">
<path d="M354.333 179H-20.6666V554H354.333V179Z" fill="white"/>
</mask>
<g mask="url(#mask18_56_1448)">
<path d="M302.778 220.017C302.615 221.769 301.062 223.058 299.31 222.895C297.558 222.732 296.269 221.179 296.432 219.427C296.595 217.675 298.148 216.386 299.9 216.55C301.653 216.712 302.941 218.264 302.778 220.017Z" fill="#FFB126"/>
</g>
</g>
</g>
<defs>
<clipPath id="clip0_56_1448">
<rect width="459" height="304" fill="white"/>
</clipPath>
</defs>
</svg>
