<svg width="106" height="160" viewBox="0 0 106 160" fill="none" xmlns="http://www.w3.org/2000/svg">
<path d="M24.7619 84.0212L25.6085 84.8677M29.8413 85.9259L30.2646 86.5609M29.418 82.328L29.8413 80.2116M66.0318 76.4021L66.8783 76.8254M69.418 78.5185L70.0529 79.5767M68.9947 73.4392H69.6296M73.4392 74.4974V75.5556M15.0265 46.5609V47.4074M13.9683 42.7513H14.8148M10.582 45.5027L11.0053 46.5609" stroke="#111111" stroke-width="3" stroke-linecap="round"/>
<path d="M37.2487 77.4603C26.2434 70.0529 19.6826 63.2804 15.873 53.9683L23.0688 56.0847C19.4709 40.6349 23.7037 31.3228 28.3598 25.3968L31.1111 35.5556C34.9207 20.9524 41.6932 13.9683 48.8889 9.10054V20.3175C58.4127 10.582 68.3598 6.7725 80 4.23282L72.1693 16.9312C84.2328 11.0053 92.9101 9.10054 102.857 9.10054C95.8731 21.5873 84.0212 33.6508 73.4392 41.6931C82.963 38.5185 90.582 37.4603 99.0477 37.4603C89.7355 48.4656 80.635 55.0265 69.418 60.1058C76.8566 59.362 81.0271 58.9449 88.4656 58.2011C78.0953 66.0318 67.3016 71.3228 53.1217 72.8042L59.2593 74.0741C53.545 77.0371 49.3122 78.5185 44.2328 78.7302" stroke="#E0C922" stroke-width="2.53968" stroke-linecap="round" stroke-linejoin="round"/>
<path d="M30.6878 46.3492C27.9365 56.2963 28.783 65.6085 40.8465 77.672C47.619 73.6508 55.873 67.9365 59.8941 60.9524C58.201 60.5291 56.7195 60.5291 55.4497 60.5291C61.7989 57.5661 67.3016 52.2751 68.783 46.7725C64.9735 46.7725 62.0106 47.6191 59.2592 48.6773C66.0317 41.0582 71.746 33.0159 74.074 23.4921C62.6455 26.2434 53.3333 33.8624 48.4655 39.3651C48.4655 35.5556 47.8307 33.0159 46.9841 29.2064C41.4814 33.0159 34.2856 41.4815 34.2856 49.9471C33.6508 48.254 31.9576 46.7725 30.6878 46.3492Z" fill="#E0C922"/>
<path d="M39.8351 63.7339C34.9674 59.5011 34.8942 55.6614 37.672 54.6032C41.9514 52.4868 42.798 59.9244 39.8351 63.7339Z" fill="#F8F8F8"/>
<path d="M42.3747 92.3053L39.8351 63.7339M39.8351 63.7339C34.9674 59.5011 34.8942 55.6614 37.672 54.6032C41.9514 52.4868 42.798 59.9244 39.8351 63.7339Z" stroke="#111111" stroke-width="3" stroke-linecap="round" stroke-linejoin="round"/>
<path d="M47.8307 112.169L52.2752 126.138M48.4656 123.386L55.4498 119.577M46.1376 118.307L55.4498 114.074M52.2752 110.053L53.1217 110.899" stroke="#111111" stroke-width="3" stroke-linecap="round" stroke-linejoin="round"/>
<path d="M23.2804 156.825C30.4762 141.587 48.4656 141.587 62.6455 129.947C68.9727 124.753 80.9831 124.273 87.3802 120C89.9703 118.27 93.1436 115.012 91.6402 112.381C89.1005 107.936 79.7884 116.825 70.0529 116.825C83.5979 110.688 91.6402 103.28 89.9471 99.8942C86.9841 93.9683 74.2857 106.878 65.1852 110.476C79.5767 102.222 85.0794 89.3122 79.7884 87.6191C73.6508 85.655 70.0529 100.952 60.9524 104.127C66.8783 88.0423 55.2381 82.328 43.3863 91.6402C40 94.3008 46.7725 95.873 53.545 94.6032C57.5661 103.28 45.4987 111.031 41.2699 107.937C37.9165 105.483 38.232 102.898 39.4653 100.529M4.6561 141.587C17.7778 129.947 21.5994 112.804 26.2434 102.646C29.6296 95.2381 36.0505 90.7675 41.2699 92.2751C45.6946 93.5533 41.4233 96.7685 39.4653 100.529M39.1534 121.905C44.6561 113.651 35.1323 107.302 39.4653 100.529" stroke="#111111" stroke-width="3" stroke-linecap="round" stroke-linejoin="round"/>
</svg>
