<svg width="166" height="30" viewBox="0 0 166 30" fill="none" xmlns="http://www.w3.org/2000/svg">
<g clip-path="url(#clip0_56_2249)">
<path d="M15.5 30C23.7845 30 30.5 23.2845 30.5 15V4.5C30.5 3.30653 30.0259 2.16193 29.182 1.31802C28.3381 0.474106 27.1935 0 26 0L16.25 0V6.5805C16.25 8.082 16.3415 9.6375 17.129 10.9155C17.6928 11.8314 18.4469 12.6153 19.3404 13.2141C20.2338 13.8129 21.2456 14.2124 22.307 14.3857L22.5943 14.4323C22.7127 14.4727 22.8155 14.5492 22.8883 14.651C22.9611 14.7528 23.0002 14.8749 23.0002 15C23.0002 15.1251 22.9611 15.2472 22.8883 15.349C22.8155 15.4508 22.7127 15.5273 22.5943 15.5677L22.307 15.6143C20.7561 15.8676 19.324 16.6017 18.2128 17.7128C17.1017 18.824 16.3676 20.2561 16.1143 21.807L16.0678 22.0942C16.0273 22.2127 15.9508 22.3155 15.849 22.3883C15.7472 22.4611 15.6252 22.5002 15.5 22.5002C15.3749 22.5002 15.2528 22.4611 15.151 22.3883C15.0492 22.3155 14.9727 22.2127 14.9323 22.0942L14.8858 21.807C14.7124 20.7456 14.3128 19.7338 13.714 18.8404C13.1153 17.947 12.3314 17.1928 11.4155 16.629C10.1375 15.8415 8.58201 15.75 7.08051 15.75H0.518005C0.910255 23.6858 7.46751 30 15.5 30Z" fill="#787878"/>
<path d="M0.5 14.25H7.0805C8.582 14.25 10.1375 14.1585 11.4155 13.371C12.4145 12.7555 13.2555 11.9145 13.871 10.9155C14.6585 9.6375 14.75 8.082 14.75 6.5805V0H5C3.80653 0 2.66193 0.474106 1.81802 1.31802C0.974106 2.16193 0.5 3.30653 0.5 4.5L0.5 14.25ZM35.3413 1.5C35.3413 1.89782 35.1832 2.27936 34.9019 2.56066C34.6206 2.84196 34.2391 3 33.8413 3C33.4434 3 33.0619 2.84196 32.7806 2.56066C32.4993 2.27936 32.3413 1.89782 32.3413 1.5C32.3413 1.10218 32.4993 0.720644 32.7806 0.43934C33.0619 0.158035 33.4434 0 33.8413 0C34.2391 0 34.6206 0.158035 34.9019 0.43934C35.1832 0.720644 35.3413 1.10218 35.3413 1.5ZM159.283 9.078C163.477 9.078 165.5 12.0068 165.5 15.399V21.7703H161.112V16.155C161.112 14.6175 160.551 13.3485 158.942 13.3485C157.333 13.3485 156.797 14.6175 156.797 16.155V21.7695H152.409V16.155C152.409 14.6175 151.872 13.3485 150.263 13.3485C148.654 13.3485 148.093 14.6175 148.093 16.155V21.7695H143.706V15.3983C143.706 12.006 145.729 9.07725 149.922 9.07725C152.214 9.07725 153.871 9.98025 154.627 11.469C155.431 9.98025 157.187 9.0765 159.283 9.0765V9.078ZM135.82 17.865C137.234 17.865 137.844 16.5713 137.844 15.033V9.5655H142.231V15.57C142.231 19.158 140.135 22.1362 135.82 22.1362C131.505 22.1362 129.409 19.1588 129.409 15.57V9.5655H133.797V15.033C133.797 16.5705 134.406 17.865 135.82 17.865ZM122.956 22.1603C120.201 22.1603 118.422 21.2085 117.373 19.3538L120.543 17.5718C120.982 18.3525 121.639 18.7432 122.736 18.7432C123.639 18.7432 124.053 18.426 124.053 18.0353C124.053 16.5465 117.617 18.06 117.617 13.3253C117.617 11.0303 119.567 9.1755 122.883 9.1755C125.784 9.1755 127.368 10.5907 128.076 11.958L124.906 13.764C124.638 13.032 123.809 12.5925 122.98 12.5925C122.347 12.5925 122.005 12.861 122.005 13.227C122.005 14.7405 128.441 13.3492 128.441 17.9377C128.441 20.5005 125.93 22.1603 122.956 22.1603ZM107.625 27.384H103.236V15.6435C103.236 11.9085 106.04 9.1995 109.941 9.1995C113.744 9.1995 116.645 12.1042 116.645 15.6435C116.645 19.5487 114.061 22.1362 110.185 22.1362C109.282 22.1362 108.381 21.8678 107.625 21.4523V27.384ZM109.941 18.0112C111.331 18.0112 112.257 16.9373 112.257 15.6675C112.257 14.3745 111.331 13.3245 109.941 13.3245C108.551 13.3245 107.625 14.3745 107.625 15.6683C107.625 16.9373 108.551 18.0112 109.941 18.0112ZM98.8408 8.2725C97.4023 8.2725 96.2083 7.07625 96.2083 5.63625C96.2083 4.19625 97.4023 3 98.8408 3C100.279 3 101.474 4.19625 101.474 5.63625C101.474 7.07625 100.279 8.2725 98.8408 8.2725ZM96.647 9.5655H101.035V21.7703H96.647V9.5655ZM88.2275 22.1362C84.4242 22.1362 81.5232 19.2075 81.5232 15.6435C81.5232 12.1042 84.4242 9.1755 88.2275 9.1755C92.0308 9.1755 94.9317 12.1042 94.9317 15.6435C94.9317 19.2075 92.0308 22.1362 88.2275 22.1362ZM88.2275 18.0112C89.6172 18.0112 90.5435 16.9373 90.5435 15.6675C90.5435 14.3745 89.6172 13.3005 88.2275 13.3005C86.8378 13.3005 85.9115 14.3745 85.9115 15.6675C85.9115 16.9373 86.8378 18.0112 88.2275 18.0112ZM73.2373 27.75C70.2148 27.75 68.0202 26.4075 66.899 24.015L70.5312 22.0627C70.9212 22.893 71.6525 23.7472 73.1637 23.7472C74.7493 23.7472 75.797 22.746 75.9193 20.9888C75.3343 21.5018 74.4072 21.8918 73.0182 21.8918C69.629 21.8918 66.8982 19.2803 66.8982 15.6188C66.8982 12.0803 69.8 9.1995 73.6032 9.1995C77.504 9.1995 80.3075 11.9093 80.3075 15.6435V20.4765C80.3075 24.87 77.2595 27.75 73.2373 27.75ZM73.5298 17.7675C74.846 17.7675 75.8457 16.8638 75.8457 15.5212C75.8457 14.2035 74.8467 13.3245 73.5298 13.3245C72.2375 13.3245 71.2138 14.2035 71.2138 15.522C71.2138 16.8645 72.2375 17.7668 73.5298 17.7668V17.7675ZM59.4553 22.1362C55.652 22.1362 52.7503 19.2075 52.7503 15.6435C52.7503 12.1042 55.652 9.1755 59.4553 9.1755C63.2578 9.1755 66.1595 12.1042 66.1595 15.6435C66.1595 19.2075 63.2585 22.1362 59.4553 22.1362ZM59.4553 18.0112C60.845 18.0112 61.7712 16.9373 61.7712 15.6675C61.7712 14.3745 60.845 13.3005 59.4553 13.3005C58.0655 13.3005 57.1392 14.3745 57.1392 15.6675C57.1392 16.9373 58.0655 18.0112 59.4553 18.0112ZM44.7598 5.295V17.6205H52.025V21.7703H44.15C41.3713 21.7703 40.25 20.3055 40.25 17.9865V5.295H44.7598Z" fill="#787878"/>
</g>
<defs>
<clipPath id="clip0_56_2249">
<rect width="165" height="30" fill="white" transform="translate(0.5)"/>
</clipPath>
</defs>
</svg>
