<svg width="114" height="44" viewBox="0 0 114 44" fill="none" xmlns="http://www.w3.org/2000/svg">
<path d="M23.6776 22.3035C23.6776 20.7428 24.6094 19.6556 26.0335 19.6556C27.4575 19.6556 28.3892 20.7428 28.3892 22.3035C28.3892 23.8467 27.4575 24.9513 26.0335 24.9513C24.6094 24.9513 23.6776 23.8467 23.6776 22.3035Z" fill="#787878"/>
<path d="M35.7209 19.5854C34.3672 19.5854 33.453 20.6375 33.453 22.0755C33.453 23.531 34.3847 24.6182 35.7209 24.6182C37.1976 24.6182 38.1821 23.5134 38.1821 22.0755C38.1821 20.6551 37.1976 19.5854 35.7209 19.5854Z" fill="#787878"/>
<path d="M43.5684 22.3035C43.5684 20.7428 44.5002 19.6556 45.9242 19.6556C47.3482 19.6556 48.2799 20.7428 48.2799 22.3035C48.2799 23.8467 47.3482 24.9513 45.9242 24.9513C44.5002 24.9513 43.5684 23.8467 43.5684 22.3035Z" fill="#787878"/>
<path d="M57.895 22.321C57.895 20.7604 58.8443 19.6732 60.3386 19.6732C61.833 19.6732 62.7295 20.7779 62.7295 22.321C62.7295 23.8642 61.833 24.9514 60.3386 24.9514C58.8443 24.9514 57.895 23.8817 57.895 22.321Z" fill="#787878"/>
<path fill-rule="evenodd" clip-rule="evenodd" d="M57 40.649C86.871 40.649 111.086 32.1736 111.086 21.7187C111.086 11.2638 86.871 2.78845 57 2.78845C27.1289 2.78845 2.91348 11.2638 2.91348 21.7187C2.91348 32.1736 27.1289 40.649 57 40.649ZM20.2025 26.6523V13.6057H18.0577V26.6523H20.2025ZM21.5153 22.3034C21.5153 24.9688 23.3085 26.8627 26.0335 26.8627C28.7585 26.8627 30.5516 24.9688 30.5516 22.3034C30.5516 19.638 28.7585 17.7442 26.0335 17.7442C23.3085 17.7442 21.5153 19.638 21.5153 22.3034ZM35.3517 26.4769C32.908 26.4769 31.273 24.6532 31.273 22.1281C31.273 19.5854 32.9432 17.7091 35.422 17.7091C36.7054 17.7091 37.7954 18.2527 38.3228 19.1646L38.4458 17.9896H40.3445V26.2139C40.3445 29.0722 38.5514 30.9134 35.7385 30.9134C33.3475 30.9134 31.607 29.4405 31.3258 27.1783H33.4882C33.6112 28.3182 34.5254 28.967 35.8615 28.967C37.3559 28.967 38.2525 28.0201 38.2525 26.5996V25.1267C37.7075 25.9684 36.6175 26.4769 35.3517 26.4769ZM41.4059 22.3034C41.4059 24.9688 43.1992 26.8627 45.9242 26.8627C48.6491 26.8627 50.4423 24.9688 50.4423 22.3034C50.4423 19.638 48.6491 17.7442 45.9242 17.7442C43.1992 17.7442 41.4059 19.638 41.4059 22.3034ZM54.0469 14.9385C54.0469 15.6574 53.4668 16.2186 52.7635 16.2186C52.0427 16.2186 51.4977 15.6574 51.4977 14.9385C51.4977 14.237 52.0427 13.6759 52.7635 13.6759C53.4668 13.6759 54.0469 14.237 54.0469 14.9385ZM53.8359 17.9896V26.6523H51.6911V17.9896H53.8359ZM55.715 30.6679H57.8071V25.4599C58.352 26.3542 59.5299 26.8802 60.8309 26.8802C63.3977 26.8802 64.9271 24.9163 64.892 22.2157C64.8392 19.4977 63.2746 17.7266 60.8133 17.7266C59.4948 17.7266 58.2993 18.3053 57.7719 19.3048L57.6488 17.9896H55.715V30.6679ZM68.9175 26.8802C66.843 26.8802 65.5069 25.7755 65.4366 24.057H67.388C67.388 24.811 67.933 25.2494 68.8823 25.2494C69.6735 25.2494 70.324 24.9338 70.324 24.2499C70.324 23.7589 69.9723 23.4958 69.4097 23.338L67.8979 22.9522C66.2277 22.5139 65.5772 21.5845 65.5772 20.4622C65.5772 18.8138 66.9661 17.7266 68.8296 17.7266C70.7107 17.7266 71.9941 18.8138 72.0644 20.5324H70.113C70.113 19.7783 69.5855 19.3224 68.7769 19.3224C68.0033 19.3224 67.5287 19.7432 67.5287 20.3395C67.5287 20.9006 67.9682 21.1285 68.6186 21.3039L70.1482 21.6721C71.5722 22.0228 72.3457 22.8646 72.3457 24.1096C72.3457 25.793 70.9568 26.8802 68.9175 26.8802ZM76.7948 26.8802C77.9723 26.8802 79.0973 26.3366 79.6073 25.53L79.7483 26.6523H81.7523V17.9896H79.6073V22.5314C79.6073 24.0921 79.0095 24.9688 77.6033 24.9688C76.5135 24.9688 75.7575 24.4428 75.7575 22.6542V17.9896H73.6124V23.4082C73.6124 25.4774 74.7376 26.8802 76.7948 26.8802ZM85.7903 21.6721V26.6523H83.6453V17.9896H85.614L85.7198 18.9717C86.2298 18.2001 87.144 17.7266 88.1633 17.7266C89.6048 17.7266 90.5543 18.3579 91.029 19.375C91.4513 18.3579 92.4885 17.7266 93.807 17.7266C95.9168 17.7266 97.0238 18.9892 97.0238 20.9883V26.6523H94.9493V21.4792C94.9493 20.2518 94.2818 19.603 93.2445 19.603C92.2245 19.603 91.416 20.2693 91.416 21.6897V26.6523H89.3235V21.4792C89.3235 20.2518 88.656 19.603 87.636 19.603C86.6168 19.603 85.7903 20.2693 85.7903 21.6721Z" fill="#787878"/>
</svg>
