<svg width="78" height="56" viewBox="0 0 78 56" fill="none" xmlns="http://www.w3.org/2000/svg">
<path d="M6.35375 50.557V39.25H4.5V50.557H6.35375Z" fill="#787878"/>
<path d="M7.4884 46.788C7.4884 49.098 9.03829 50.7393 11.3934 50.7393C13.7486 50.7393 15.2985 49.098 15.2985 46.788C15.2985 44.478 13.7486 42.8367 11.3934 42.8367C9.03829 42.8367 7.4884 44.478 7.4884 46.788ZM9.35734 46.788C9.35734 45.4354 10.1627 44.4932 11.3934 44.4932C12.6242 44.4932 13.4295 45.4354 13.4295 46.788C13.4295 48.1254 12.6242 49.0828 11.3934 49.0828C10.1627 49.0828 9.35734 48.1254 9.35734 46.788Z" fill="#787878"/>
<path d="M15.9219 46.636C15.9219 48.8245 17.3349 50.405 19.447 50.405C20.541 50.405 21.4831 49.9642 21.9541 49.2348V50.5114C21.9541 51.7423 21.1792 52.5631 19.8876 52.5631C18.7329 52.5631 17.9427 52.0007 17.8364 51.0129H15.9675C16.2106 52.9734 17.7148 54.25 19.7813 54.25C22.2125 54.25 23.7623 52.6542 23.7623 50.177V43.0494H22.1213L22.0149 44.0676C21.5591 43.2773 20.617 42.8062 19.5078 42.8062C17.3653 42.8062 15.9219 44.4323 15.9219 46.636ZM17.806 46.5904C17.806 45.3442 18.5961 44.4323 19.7661 44.4323C21.0425 44.4323 21.8934 45.3594 21.8934 46.5904C21.8934 47.8366 21.0425 48.794 19.7661 48.794C18.6113 48.794 17.806 47.8518 17.806 46.5904Z" fill="#787878"/>
<path d="M24.6797 46.788C24.6797 49.098 26.2296 50.7393 28.5848 50.7393C30.9399 50.7393 32.4898 49.098 32.4898 46.788C32.4898 44.478 30.9399 42.8367 28.5848 42.8367C26.2296 42.8367 24.6797 44.478 24.6797 46.788ZM26.5487 46.788C26.5487 45.4354 27.354 44.4932 28.5848 44.4932C29.8155 44.4932 30.6209 45.4354 30.6209 46.788C30.6209 48.1254 29.8155 49.0828 28.5848 49.0828C27.354 49.0828 26.5487 48.1254 26.5487 46.788Z" fill="#787878"/>
<path d="M34.4959 41.5145C35.1037 41.5145 35.6052 41.0281 35.6052 40.405C35.6052 39.7972 35.1037 39.3109 34.4959 39.3109C33.873 39.3109 33.4019 39.7972 33.4019 40.405C33.4019 41.0281 33.873 41.5145 34.4959 41.5145ZM33.5691 50.557H35.4229V43.0495H33.5691V50.557Z" fill="#787878"/>
<path d="M37.0469 54.0372H38.855V49.5236C39.3261 50.2986 40.3441 50.7545 41.4685 50.7545C43.6869 50.7545 45.0089 49.0524 44.9784 46.712C44.9329 44.3564 43.5806 42.8214 41.4533 42.8214C40.3137 42.8214 39.2805 43.3229 38.8246 44.1892L38.7183 43.0494H37.0469V54.0372ZM38.931 46.8032C38.931 45.4506 39.7515 44.5083 41.043 44.5083C42.3346 44.5083 43.1095 45.4658 43.1095 46.8032C43.1095 48.1406 42.3346 49.0828 41.043 49.0828C39.7515 49.0828 38.931 48.1558 38.931 46.8032Z" fill="#787878"/>
<path d="M45.4492 48.3077C45.51 49.7971 46.6648 50.7545 48.4577 50.7545C50.2203 50.7545 51.4207 49.8123 51.4207 48.3533C51.4207 47.2743 50.7521 46.5448 49.5214 46.2409L48.1994 45.9217C47.6372 45.7697 47.2573 45.5722 47.2573 45.0859C47.2573 44.5691 47.6676 44.2044 48.3361 44.2044C49.0351 44.2044 49.491 44.5995 49.491 45.2531H51.1776C51.1168 43.7636 50.0076 42.8214 48.3817 42.8214C46.7711 42.8214 45.5707 43.7636 45.5707 45.1922C45.5707 46.1649 46.1329 46.9703 47.5765 47.3503L48.8832 47.6846C49.3694 47.8214 49.6733 48.0494 49.6733 48.4749C49.6733 49.0676 49.1111 49.3412 48.4273 49.3412C47.6068 49.3412 47.1358 48.9612 47.1358 48.3077H45.4492Z" fill="#787878"/>
<path d="M55.2658 50.7546C56.2838 50.7546 57.2563 50.2834 57.6969 49.5843L57.8185 50.557H59.5507V43.0494H57.6969V46.9856C57.6969 48.3381 57.1803 49.098 55.9648 49.098C55.0227 49.098 54.3693 48.6421 54.3693 47.0919V43.0494H52.5155V47.7455C52.5155 49.5387 53.488 50.7546 55.2658 50.7546Z" fill="#787878"/>
<path d="M63.0406 50.557V46.2409C63.0406 45.0251 63.7547 44.4476 64.6361 44.4476C65.5173 44.4476 66.0947 45.0098 66.0947 46.0737V50.557H67.9029V46.256C67.9029 45.0251 68.6018 44.4476 69.4832 44.4476C70.3796 44.4476 70.9571 45.0098 70.9571 46.0737V50.557H72.75V45.6482C72.75 43.9157 71.7927 42.8214 69.9694 42.8214C68.8298 42.8214 67.9333 43.3685 67.5686 44.25C67.1584 43.3685 66.3379 42.8214 65.0919 42.8214C64.2106 42.8214 63.4205 43.2317 62.9798 43.9004L62.8886 43.0494H61.1869V50.557H63.0406Z" fill="#787878"/>
<path d="M34.1152 29.0142C31.6731 33.4091 26.7007 35.5 21.6728 35.5H1.5C22.5 32.875 37.125 22.375 39 7.75C40.875 22.375 55.5 32.875 76.5 35.5H56.3272C51.2993 35.5 46.3269 33.4091 43.8848 29.0142C41.2415 24.2575 39.5574 18.875 39 13C38.4426 18.875 36.7585 24.2575 34.1152 29.0142Z" fill="#787878"/>
<path d="M22.5788 27.461C21.4008 28.1242 20.1616 28.7472 18.8641 29.3274C18.1271 26.7815 17.8559 24.1104 18.0722 21.4495C18.3583 17.9294 19.4888 14.5357 21.3635 11.5692C23.2383 8.60275 25.7993 6.15489 28.8199 4.44256C31.8404 2.73023 35.2273 1.80626 38.6803 1.75249C42.1334 1.69871 45.5461 2.51681 48.6163 4.13429C51.6864 5.75177 54.3191 8.1187 56.2812 11.0255C58.2433 13.9323 59.4743 17.2891 59.8651 20.7986C60.1847 23.6693 59.9342 26.5697 59.1358 29.3274C57.8383 28.7472 56.5992 28.1241 55.4212 27.4609C55.9178 25.4447 56.057 23.3473 55.8256 21.2692C55.5105 18.4391 54.5178 15.7321 52.9356 13.3881C51.3533 11.0442 49.2303 9.1354 46.7545 7.83107C44.2788 6.52673 41.5267 5.86703 38.7422 5.91038C35.9576 5.95374 33.2265 6.69884 30.7908 8.07963C28.355 9.46045 26.2897 11.4344 24.778 13.8266C23.2662 16.2188 22.3546 18.9554 22.1239 21.7941C21.9688 23.7021 22.1245 25.6166 22.5788 27.461Z" fill="#787878"/>
</svg>
