<svg width="161" height="160" viewBox="0 0 161 160" fill="none" xmlns="http://www.w3.org/2000/svg">
<path d="M43.6672 35.0695L55.3044 37.6467L66.3259 33.115L67.4678 44.9777L75.1854 54.0591L64.2569 58.8092L58.0034 68.9573L50.1068 60.0298L38.5269 57.2199L44.5764 46.9537L43.6672 35.0695Z" fill="#E0C922"/>
<path d="M92.5252 9.44126L96.469 14.5883L102.644 16.561L98.9684 21.8981L99.004 28.3798L92.791 26.5306L86.6358 28.5648L86.4718 22.0845L82.6333 16.8606L88.7449 14.7058L92.5252 9.44126Z" fill="#E0C922"/>
<path d="M99.9306 42.1865L103.55 43.4298L107.231 42.3837L107.166 46.208L109.299 49.3836L105.641 50.5027L103.278 53.5125L101.082 50.3796L97.4889 49.0642L99.7906 46.0093L99.9306 42.1865Z" fill="#E0C922"/>
<path d="M9.97168 134.645C14.7309 123.993 24.9292 105.183 36.7139 105.183C47.3654 105.183 48.9518 119.914 58.6969 119.914C80.2266 119.914 84.5326 68.2425 104.703 68.2426C123.739 68.2426 145.496 106.543 150.482 115.608M26.4 119.914L23.2 124M30.8 121.2L30.4 122.4M35.6 121.2V124M124.4 88.4L133.6 99.2M119.6 90.4L121.6 94" stroke="#111111" stroke-width="3" stroke-linecap="round" stroke-linejoin="round"/>
<path d="M96.3173 143.71C118.074 146.656 149.575 129.432 160 116.514C158.414 114.928 155.066 113.667 152.8 114.8C154.84 112.534 148.931 105.618 146.8 112C140.228 107.014 131.218 108.129 132.805 116.514C128.045 114.248 122.38 116.514 123.739 124.673C116.941 121.047 108.102 124.673 113.314 135.098C106.742 134.418 101.303 136.458 96.3173 143.71Z" fill="#E0C922"/>
<path d="M0.453332 146.203C7.02557 154.135 61.6431 153.455 70.7083 149.149C69.1219 146.883 60.2834 145.07 57.1106 146.203C57.1106 141.444 55.0709 139.631 50.0851 142.123C51.8981 131.925 47.1389 132.378 37.3938 134.645C38.527 125.58 26.9689 124.22 19.9434 134.645C16.9972 123.767 4.07939 128.752 4.98591 139.631C1.81311 138.497 0.453331 141.67 1.8131 144.39C0.906553 144.39 -0.679832 144.39 0.453332 146.203Z" fill="#E0C922"/>
<path d="M108.555 90.2255H50.9915M107.875 100.197H63.2295M104.703 108.809H97.6771" stroke="#111111" stroke-width="3" stroke-linecap="round" stroke-linejoin="round"/>
<path d="M41.6 145.821C41.6 141.821 47.2 140.621 49.2 144.221C51.2 139.421 56 139.421 58 145.822C62.4 144.222 65.3137 147.528 70 148.622" stroke="#111111" stroke-width="3" stroke-linecap="round" stroke-linejoin="round"/>
<path d="M158.8 116.4C155.047 113.363 150.92 112.8 150.92 118.076C143.408 115.2 139.392 119.546 140.8 124.4C135.392 123.07 135.6 126.8 133.6 128.8" stroke="#111111" stroke-width="3" stroke-linecap="round" stroke-linejoin="round"/>
</svg>
