<svg width="280" height="280" viewBox="0 0 280 280" fill="none" xmlns="http://www.w3.org/2000/svg">
<g clip-path="url(#clip0_124_3103)">
<path d="M40.4865 154.378L71.8919 142.649M49.1892 165.73L76.8108 157.027M55.2433 180.108L78.7027 171.405M234.216 133.946L218.324 142.649L242.541 151.351L241.027 136.216M89.6757 48.4324C82.1081 49.5675 76.2054 57.1351 86.6487 59.4053C95.3514 61.2972 102.919 55.9999 97.2433 49.5675" stroke="#111111" stroke-width="3" stroke-linecap="round" stroke-linejoin="round"/>
<path d="M138.803 142.735L149.305 153.806L164.266 156.841L156.947 170.331L158.61 185.55L143.59 182.814L129.652 189.187L127.689 174.005L117.414 162.727L131.221 156.082L138.803 142.735Z" fill="#E0C922"/>
<path d="M101.5 283.5C103 278 104.439 271 104.811 262.973C107.46 205.838 83.6218 195.243 88.5406 149.459C90.3594 132.53 104.26 109.73 136.216 109.73C175.189 109.73 191.459 132.811 193.73 175.189C194.094 182 197.135 186.54 205.459 192.216C212.649 197.118 195.621 205.838 196.378 213.405C197.265 222.271 201.574 231.946 196.378 236.865C185.296 247.356 170.27 238.757 170.27 262.973C170.27 270.989 170.27 275.484 170.27 283.5" stroke="#111111" stroke-width="3" stroke-linecap="round" stroke-linejoin="round"/>
<path d="M192.5 282C191.081 275 190.05 270.5 191.081 264.108C192.973 252.378 206.595 252.967 212.649 245.568C219.46 237.243 217.568 226.27 217.568 212.649C217.568 204.324 238 195.265 231.568 189.568C218.324 177.838 207.73 177.838 207.73 150.216C207.73 108.216 177.838 71.4092 132.054 76.054C66.1753 82.7374 55.546 136.216 62.8109 175.946C68.1381 205.079 95.7298 232.324 87.7836 264.108C86.3105 270 84 276.5 80.5 282" stroke="#111111" stroke-width="3" stroke-linecap="round" stroke-linejoin="round"/>
<path d="M125.622 146.054C125.622 149.398 122.911 152.108 119.568 152.108C116.224 152.108 113.135 149.398 113.135 146.054C113.135 142.71 116.224 140 119.568 140C122.911 140 125.622 142.71 125.622 146.054Z" fill="#E0C922"/>
<path d="M164.973 143.027C164.973 146.371 161.884 149.081 158.541 149.081C155.197 149.081 152.865 146.371 152.865 143.027C152.865 139.683 156.332 136.595 159.676 136.595C163.019 136.595 164.973 139.683 164.973 143.027Z" fill="#E0C922"/>
<path d="M177.46 175.568C177.46 178.911 174.371 181.622 171.027 181.622C167.684 181.622 164.973 177.776 164.973 174.432C164.973 171.089 167.684 169.513 171.027 169.513C174.371 169.513 177.46 172.224 177.46 175.568Z" fill="#E0C922"/>
<path d="M153.095 196.757C153.095 200.1 150.154 203.568 146.811 203.568C143.467 203.568 140 200.857 140 197.513C140 194.17 143.467 191.459 146.811 191.459C150.154 191.459 153.095 193.413 153.095 196.757Z" fill="#E0C922"/>
<path d="M119.568 180.486C119.568 183.83 116.857 187.676 113.514 187.676C110.17 187.676 107.081 184.965 107.081 181.622C107.081 178.278 110.17 175.568 113.514 175.568C116.857 175.568 119.568 177.143 119.568 180.486Z" fill="#E0C922"/>
<path d="M167.622 152.108L219.459 106.324M206.973 209.243L235.351 217.189M146.054 212.27L143.784 244.811M84 196L55.6216 212.27M111.622 134.703L65.8379 85.1351M135.838 100.649L130.162 37.8378" stroke="#E0C922" stroke-width="4.54054" stroke-linecap="round" stroke-linejoin="round"/>
<path d="M221.396 109.695C218.172 108.806 216.279 105.473 217.167 102.25C218.056 99.0264 221.533 96.355 224.757 97.2432C227.98 98.1314 229.729 102.243 228.84 105.466C227.952 108.69 224.619 110.583 221.396 109.695Z" fill="#E0C922"/>
<path d="M237.404 224.42C234.181 223.532 232.288 220.199 233.176 216.975C234.064 213.752 237.542 211.081 240.765 211.969C243.989 212.857 246.456 216.993 245.568 220.216C244.679 223.44 240.628 225.308 237.404 224.42Z" fill="#E0C922"/>
<path d="M138.865 246.324C137.889 243.126 139.415 238.993 142.612 238.017C145.81 237.04 149.929 238.546 150.905 241.744C151.882 244.942 151.144 249.132 147.946 250.108C144.748 251.085 139.842 249.522 138.865 246.324Z" fill="#E0C922"/>
<path d="M47.9412 209.673C50.2942 207.298 54.6572 206.682 57.0326 209.035C59.408 211.388 60.0339 215.729 57.6809 218.104C55.3278 220.48 50.3167 220.457 47.9412 218.104C45.5658 215.751 45.5882 212.049 47.9412 209.673Z" fill="#E0C922"/>
<path d="M58.2703 76.054C60.6233 73.6786 63.9043 74.5253 66.2797 76.8783C68.6552 79.2313 68.6328 84.2732 66.2798 86.6486C63.9267 89.024 59.5638 88.3003 57.1884 85.9472C54.8129 83.5942 55.9172 78.4294 58.2703 76.054Z" fill="#E0C922"/>
<path d="M133.524 27.5307C136.718 28.5207 137.482 31.8219 136.492 35.0155C135.502 38.2091 131.019 40.5177 127.826 39.5277C124.632 38.5376 123.259 34.3336 124.249 31.1399C125.239 27.9463 130.33 26.5406 133.524 27.5307Z" fill="#E0C922"/>
<path d="M74.5405 264.108V259.946M71.5135 248.595L68.8649 242.541M62.4324 228.162L57.5135 221.73M51.4595 206.595L48.0541 197.514M43.5135 177.838V169.135M43.5135 144.541V132.811M51.4595 112.378L57.5135 98.7568M73.4054 79.8379L87.4054 71.1352M110.865 62.0541L125.243 57.8919M163.081 59.4054L176.324 63.946M206.595 79.8379L215.676 88.9189M228.919 116.162L231.568 125.622M231.568 160.432V167.243M243.676 183.892L244.811 185.405M243.676 205.459L240.649 211.514M230.054 225.514V228.541M225.892 251.243L223.622 254.27M210 266L209.243 266.757" stroke="#111111" stroke-width="3" stroke-linecap="round" stroke-linejoin="round"/>
<path d="M52.5946 265.243V263.351M45.4054 250.108L43.8919 245.189M37.4595 228.919L35.5676 225.135M27.2433 205.081L26.1081 202.432M20.8109 171.405V164.595M21.946 134.703V127.513M29.8919 101.784L31.0271 94.2162M45.0271 74.9189L48.0541 70M70.3784 51.0811L75.2973 46.9189M100.649 37.8378L106.703 35.5675M145.297 31.7838H150.595M189.946 37.8378L199.027 42.3783M220.595 53.3513L227.405 59.027M247.838 81.7297L253.514 92.7027M252.378 122.973V131.297M253.514 150.973L254.27 155.513M258.054 175.568L261.459 179.73M259.946 206.216L258.054 211.892M245.189 241.027L247.081 233.838M238.378 256.162L238 257.297" stroke="#111111" stroke-width="3" stroke-linecap="round" stroke-linejoin="round"/>
<path d="M30.2703 263.351L29.8919 261.838M21.1892 244.054L20.4325 242.919M13.2433 219.838L12.1081 217.189M7.94598 193.73L6.81084 190.324M3.78381 153.243V149.081M6.81084 124.108V122.216M12.1081 101.784L12.8649 99.5135M26.1081 65.081L27.2433 63.1891M56 40.1081L57.1352 38.9729M89.6757 22.7027L90.4325 21.9459M122.216 14L124.487 13.6216M155.514 14H157.405M190.324 17.7837L192.216 18.9189M221.351 31.027L223.622 32.5405M247.459 49.1891L248.973 50.7027M261.838 76.054L262.595 77.9459M268.27 104.811V107.459M269.027 133.568V135.081M268.27 159.676V161.568M261.838 239.892L262.595 237.622M271.297 221.73L272.432 219.838M276.595 202.432V200.54M274.703 183.513L273.946 181.622" stroke="#111111" stroke-width="3" stroke-linecap="round" stroke-linejoin="round"/>
<path d="M172.919 72.6486L166.865 97.9999H197.135L202.054 69.2432L172.919 72.6486Z" fill="#F8F8F8" stroke="#111111" stroke-width="3" stroke-linecap="round" stroke-linejoin="round"/>
</g>
<defs>
<clipPath id="clip0_124_3103">
<rect width="280" height="280" fill="white"/>
</clipPath>
</defs>
</svg>
