<svg width="896" height="423" viewBox="0 0 896 423" fill="none" xmlns="http://www.w3.org/2000/svg">
<path d="M33.6 47.7H27.7V51.62H33.4V53.82H27.7V59.5H25.4V45.5H33.6V47.7ZM38.0516 57.3H43.7516V59.5H35.7516V45.5H38.0516V57.3ZM51.1202 59.76C47.0802 59.76 43.8602 56.56 43.8602 52.5C43.8602 48.44 47.0802 45.24 51.1202 45.24C55.1802 45.24 58.3802 48.44 58.3802 52.5C58.3802 56.56 55.1802 59.76 51.1202 59.76ZM51.1202 57.52C53.9202 57.52 56.0802 55.38 56.0802 52.5C56.0802 49.62 53.9202 47.48 51.1202 47.48C48.3202 47.48 46.1602 49.62 46.1602 52.5C46.1602 55.38 48.3202 57.52 51.1202 57.52ZM67.0381 59.76C62.9981 59.76 59.7781 56.56 59.7781 52.5C59.7781 48.44 62.9981 45.24 67.0381 45.24C71.0981 45.24 74.2981 48.44 74.2981 52.5C74.2981 56.56 71.0981 59.76 67.0381 59.76ZM67.0381 57.52C69.8381 57.52 71.9981 55.38 71.9981 52.5C71.9981 49.62 69.8381 47.48 67.0381 47.48C64.2381 47.48 62.0781 49.62 62.0781 52.5C62.0781 55.38 64.2381 57.52 67.0381 57.52ZM84.3761 59.5L81.4161 54.4H78.6961V59.5H76.3961V45.5H81.9961C84.4961 45.5 86.4961 47.5 86.4961 50C86.4961 51.8 85.3561 53.4 83.7161 54.06L86.8961 59.5H84.3761ZM78.6961 47.66V52.34H81.9961C83.2161 52.34 84.1961 51.3 84.1961 50C84.1961 48.68 83.2161 47.66 81.9961 47.66H78.6961Z" fill="#F8F8F8"/>
<path d="M115.02 52.26V53.22C115.02 57.04 112.26 59.76 108.16 59.76C103.8 59.76 100.7 56.52 100.7 52.5C100.7 48.48 103.84 45.24 108.04 45.24C110.7 45.24 112.96 46.58 114.14 48.56L112.16 49.7C111.44 48.4 109.88 47.48 108.04 47.48C105.08 47.48 103 49.66 103 52.52C103 55.34 105.04 57.52 108.18 57.52C110.72 57.52 112.28 56.2 112.7 54.32H108.02V52.26H115.02Z" fill="#F8F8F8"/>
<path d="M811.62 313.719H872V380.5H553.506V263.979H768.294L811.62 277.795V313.719Z" fill="#EFE865" fill-opacity="0.4"/>
<path d="M189.382 153.905V169.564M189.382 153.905H174.432M189.382 153.905V123.5V89.5L208.5 95.5V104.5M189.382 169.564H198.601M189.382 169.564V202.264M381.124 219.765V169.564H375.593H370.062H364.531H359H353.469M381.124 219.765V380.5M381.124 219.765H457.175M553.506 263.978V219.765H479.299M553.506 263.978H768.294L811.62 277.795V313.719H872V380.5H553.506M553.506 263.978V380.5M468.237 219.765V380.5M468.237 219.765H457.175M468.237 219.765H479.299M353.469 169.564V175.091M353.469 169.564H296.776M240.083 169.564V175.091M240.083 169.564H296.776M240.083 169.564H222.568M240.083 277.795H353.469M240.083 277.795V175.091M240.083 277.795V374.973M353.469 277.795V175.091M353.469 277.795V374.973M353.469 175.091H240.083M240.083 380.5V374.973M240.083 380.5H285.714M240.083 380.5H222.568M353.469 380.5V374.973M353.469 380.5H307.838M353.469 380.5H359H364.531H370.062H375.593H381.124M296.776 169.564H285.714V175.091M296.776 169.564H307.838V175.091M240.083 374.973H259.902M353.469 374.973H333.649M285.714 380.5V374.973M285.714 380.5H296.776H307.838M285.714 374.973H307.838M285.714 374.973H280.183M307.838 374.973V380.5M307.838 374.973H313.369M280.183 374.973V365.762H313.369V374.973M280.183 374.973H259.902M313.369 374.973H333.649M259.902 374.973V345.497H333.649V374.973M285.714 175.091H307.838M285.714 175.091H280.183M307.838 175.091H313.369M280.183 175.091V184.302H313.369V175.091M280.183 175.091H259.902V204.566H280.488M313.369 175.091H333.649V204.566H313.064M313.064 204.566H296.776H280.488M313.064 204.566C310.494 211.041 304.17 215.62 296.776 215.62C289.381 215.62 283.057 211.041 280.488 204.566M222.568 169.564V183.381M222.568 169.564H208.5M222.568 380.5H189.843M222.568 380.5V366.223M553.506 380.5H479.299M468.237 380.5H457.175M468.237 380.5H479.299M381.124 380.5H457.175M136.261 114.959L137.038 120.431M136.261 114.959L80.1303 122.919M136.261 114.959L153.602 112.5L159.483 153.905M151.481 222.117L39.2203 238.037M151.481 222.117L137.038 120.431M151.481 222.117L165.147 318.331M39.2203 238.037L24.7772 136.352M39.2203 238.037L52.8863 334.251M24.7772 136.352L24 130.88L80.1303 122.919M24.7772 136.352L137.038 120.431M165.924 323.803L165.147 318.331M165.924 323.803L120.746 330.21M165.924 323.803L183.265 321.343M53.6635 339.723L52.8863 334.251M53.6635 339.723L92.1287 334.268M53.6635 339.723L55.7963 356.197M80.1303 122.919L91.0825 121.366L91.8597 126.838M80.1303 122.919L69.178 124.473L69.9552 129.945M165.147 318.331L145.524 321.113M52.8863 334.251L72.509 331.468M120.746 330.21L119.969 324.738M120.746 330.21L109.794 331.763L98.8415 333.316M119.969 324.738L98.0643 327.844M119.969 324.738L125.445 323.961M98.0643 327.844L98.8415 333.316M98.0643 327.844L92.5882 328.621M98.8415 333.316L92.1287 334.268M125.445 323.961L124.15 314.841L91.2928 319.501L92.5882 328.621M125.445 323.961L145.524 321.113M92.5882 328.621L72.509 331.468M145.524 321.113L141.379 291.93L68.3639 302.285L72.509 331.468M91.8597 126.838L69.9552 129.945M91.8597 126.838L97.3358 126.062M69.9552 129.945L64.4791 130.721M97.3358 126.062L98.6312 135.181L65.7745 139.841L64.4791 130.721M97.3358 126.062L117.415 123.214L121.56 152.397L101.179 155.288M64.4791 130.721L44.4 133.569L48.5451 162.752L68.9263 159.862M68.9263 159.862L85.0526 157.575L101.179 155.288M68.9263 159.862C72.3807 165.911 79.286 169.557 86.607 168.518C93.928 167.48 99.5456 162.059 101.179 155.288M183.265 321.343L205.975 317.864L204.282 305.889M183.265 321.343L181.593 309.574M159.483 153.905H174.432M159.483 153.905L162.819 177.393M92.1287 334.268L94.4333 350.706M80.6058 380.5H58.9427L57.929 372.671L57.8694 372.21M80.6058 380.5L79.223 369.427L85.6759 368.586M80.6058 380.5H189.843M94.4333 350.706L96.7379 367.144L85.6759 368.586M94.4333 350.706L82.9104 352.343M55.7963 356.197L57.8694 372.21M55.7963 356.197L68.9809 354.323M198.601 169.564V183.381M198.601 169.564H208.5M222.568 260.294H198.601V246.477M222.568 260.294V366.223M222.568 260.294V246.477M174.432 153.905V175.091L162.819 177.393M162.819 177.393L165.305 194.895M189.382 212.856V233.582M189.382 260.294L174.921 262.597M189.382 260.294L190.577 268.584M189.382 260.294V233.582M191.789 276.992L190.577 268.584M177.341 279.637L199.983 275.492M177.341 279.637L179.173 292.533M177.341 279.637L176.131 271.117M199.983 275.492L208.431 335.826M199.983 275.492L201.872 288.849M174.921 262.597L176.131 271.117M174.921 262.597L169.688 225.752M189.843 380.5L186.198 353.788M222.568 366.223L201.067 369.428M208.431 335.826L184.312 339.971L186.198 353.788M208.431 335.826L210.43 350.103M222.568 214.929H198.601M222.568 214.929V200.882M222.568 214.929V228.515M198.601 214.929V200.882M198.601 214.929V228.515M198.601 183.381V200.882M198.601 183.381H210.584M222.568 183.381V200.882M222.568 183.381H210.584M198.601 200.882H210.584M222.568 200.882H210.584M198.601 228.515V246.477M198.601 228.515H210.584M222.568 228.515V246.477M222.568 228.515H210.584M198.601 246.477H210.584M222.568 246.477H210.584M57.8694 372.21L71.7726 370.398M181.593 309.574L179.173 292.533M181.593 309.574L192.938 307.732M204.282 305.889L201.872 288.849M204.282 305.889L192.938 307.732M179.173 292.533L190.522 290.691M201.872 288.849L190.522 290.691M190.522 290.691L192.938 307.732M210.584 246.477V228.515M176.131 271.117L190.577 268.584M457.175 219.765V380.5M479.299 219.765V380.5M540.601 300.132H492.205M540.601 300.132V273.765V247.398H535.07M540.601 300.132V326.499V352.866H535.07M492.205 300.132V273.765V247.398H497.736M492.205 300.132V326.499V352.866H497.736M516.403 247.398V352.866M516.403 247.398H497.736M516.403 247.398H535.07M516.403 352.866H497.736M516.403 352.866H535.07M497.736 352.866V326.499M497.736 247.398V273.765M535.07 247.398V273.765M535.07 352.866V326.499M535.07 326.499H497.736M535.07 326.499V273.765M497.736 326.499V273.765M497.736 273.765H535.07M391.725 302.205V357.472H447.957V302.205M391.725 302.205V246.938H447.957V302.205M391.725 302.205H447.957M400.943 316.943V342.734H438.738V316.943M400.943 316.943H438.738M400.943 316.943V287.467M438.738 316.943V287.467M400.943 287.467V261.676H438.738V287.467M400.943 287.467H438.738M135.031 339.813L169.72 334.942M135.031 339.813L139.907 374.475M135.031 339.813L139.196 342.949M169.72 334.942L174.595 369.604M169.72 334.942L166.582 339.103M174.595 369.604L139.907 374.475M174.595 369.604L170.431 366.468M139.907 374.475L143.045 370.314M139.196 342.949L166.582 339.103M139.196 342.949L143.045 370.314M166.582 339.103L170.431 366.468M170.431 366.468L143.045 370.314M166.482 203.185L176.937 201.342L175.555 193.225M166.482 203.185L165.305 194.895M166.482 203.185L169.688 225.752M165.305 194.895L173.711 193.525L171.406 180.157L173.25 179.696L175.555 193.225M165.305 194.895L175.555 193.225M169.688 225.752L179.703 223.91V233.582H189.382M82.9104 352.343L85.6759 368.586M82.9104 352.343L68.9809 354.323M85.6759 368.586L71.7726 370.398M186.198 353.788L188.586 371.289L201.067 369.428M186.198 353.788L198.314 351.945M210.43 350.103L212.889 367.666L201.067 369.428M210.43 350.103L198.314 351.945M198.314 351.945L201.067 369.428M68.9809 354.323L71.7726 370.398M210.584 183.381V200.882M208.5 169.564V127.5M208.5 104.5V123.5V127.5M208.5 104.5H230V127.5H208.5M314.291 277.795C314.291 287.461 306.449 295.297 296.776 295.297C287.103 295.297 279.261 287.461 279.261 277.795C279.261 268.13 287.103 260.294 296.776 260.294C306.449 260.294 314.291 268.13 314.291 277.795ZM296.776 345.497H313.064C310.494 339.023 304.17 334.444 296.776 334.444C289.381 334.444 283.057 339.023 280.488 345.497H296.776ZM78.0096 232.536C79.3688 242.106 88.2346 248.763 97.8118 247.405C107.389 246.046 114.051 237.188 112.692 227.618C111.332 218.048 102.467 211.391 92.8895 212.749C83.3122 214.108 76.6503 222.967 78.0096 232.536ZM104.871 297.108L88.7452 299.395C90.3784 292.623 95.996 287.202 103.317 286.164C110.638 285.126 117.543 288.771 120.998 294.821L104.871 297.108Z" stroke="#E7E7E7" stroke-width="1.5"/>
</svg>
