<svg width="896" height="423" viewBox="0 0 896 423" fill="none" xmlns="http://www.w3.org/2000/svg">
<path d="M33.6 47.7H27.7V51.62H33.4V53.82H27.7V59.5H25.4V45.5H33.6V47.7ZM38.0516 57.3H43.7516V59.5H35.7516V45.5H38.0516V57.3ZM51.1202 59.76C47.0802 59.76 43.8602 56.56 43.8602 52.5C43.8602 48.44 47.0802 45.24 51.1202 45.24C55.1802 45.24 58.3802 48.44 58.3802 52.5C58.3802 56.56 55.1802 59.76 51.1202 59.76ZM51.1202 57.52C53.9202 57.52 56.0802 55.38 56.0802 52.5C56.0802 49.62 53.9202 47.48 51.1202 47.48C48.3202 47.48 46.1602 49.62 46.1602 52.5C46.1602 55.38 48.3202 57.52 51.1202 57.52ZM67.0381 59.76C62.9981 59.76 59.7781 56.56 59.7781 52.5C59.7781 48.44 62.9981 45.24 67.0381 45.24C71.0981 45.24 74.2981 48.44 74.2981 52.5C74.2981 56.56 71.0981 59.76 67.0381 59.76ZM67.0381 57.52C69.8381 57.52 71.9981 55.38 71.9981 52.5C71.9981 49.62 69.8381 47.48 67.0381 47.48C64.2381 47.48 62.0781 49.62 62.0781 52.5C62.0781 55.38 64.2381 57.52 67.0381 57.52ZM84.3761 59.5L81.4161 54.4H78.6961V59.5H76.3961V45.5H81.9961C84.4961 45.5 86.4961 47.5 86.4961 50C86.4961 51.8 85.3561 53.4 83.7161 54.06L86.8961 59.5H84.3761ZM78.6961 47.66V52.34H81.9961C83.2161 52.34 84.1961 51.3 84.1961 50C84.1961 48.68 83.2161 47.66 81.9961 47.66H78.6961Z" fill="#F8F8F8"/>
<path d="M103.94 45.5H105.94V59.5H103.64V47.96L100.82 48.76L100.26 46.8L103.94 45.5Z" fill="#F8F8F8"/>
<path d="M198.69 169.187H189.466L162.269 172.666L162.888 177.031L165.375 194.563L166.553 202.868L169.761 225.476L174.997 262.386L176.208 270.922L177.419 279.457L179.251 292.376L190.607 290.531L201.963 288.685L222.671 285V260.079V246.238V228.244V214.633H198.69V200.561V183.028V169.187Z" fill="#EFE865" fill-opacity="0.4"/>
<path d="M189.382 153.905V123.5V89.5L208.5 95.5V104.5M381.124 219.765V169.564H375.593H370.062H364.531H359H353.469M381.124 219.765V380.5M381.124 219.765H457.175M553.506 263.978V219.765H479.299M553.506 263.978H768.294L811.62 277.795V313.719H872V380.5H553.506M553.506 263.978V380.5M468.237 219.765V380.5M468.237 219.765H457.175M468.237 219.765H479.299M353.469 169.564V175.091M353.469 169.564H296.776M240.083 169.564V175.091M240.083 169.564H296.776M240.083 169.564H222.568M240.083 277.795H353.469M240.083 277.795V175.091M240.083 277.795V374.973M353.469 277.795V175.091M353.469 277.795V374.973M353.469 175.091H240.083M240.083 380.5V374.973M240.083 380.5H285.714M240.083 380.5H222.568M353.469 380.5V374.973M353.469 380.5H307.838M353.469 380.5H359H364.531H370.062H375.593H381.124M296.776 169.564H285.714V175.091M296.776 169.564H307.838V175.091M240.083 374.973H259.902M353.469 374.973H333.649M285.714 380.5V374.973M285.714 380.5H296.776H307.838M285.714 374.973H307.838M285.714 374.973H280.183M307.838 374.973V380.5M307.838 374.973H313.369M280.183 374.973V365.762H313.369V374.973M280.183 374.973H259.902M313.369 374.973H333.649M259.902 374.973V345.497H333.649V374.973M285.714 175.091H307.838M285.714 175.091H280.183M307.838 175.091H313.369M280.183 175.091V184.302H313.369V175.091M280.183 175.091H259.902V204.566H280.488M313.369 175.091H333.649V204.566H313.064M313.064 204.566H296.776H280.488M313.064 204.566C310.494 211.041 304.17 215.62 296.776 215.62C289.381 215.62 283.057 211.041 280.488 204.566M553.506 380.5H479.299M468.237 380.5H457.175M468.237 380.5H479.299M381.124 380.5H457.175M136.261 114.959L137.038 120.431M136.261 114.959L80.1303 122.919M136.261 114.959L153.602 112.5L159.483 153.905M151.481 222.117L39.2203 238.037M151.481 222.117L137.038 120.431M151.481 222.117L165.147 318.331L145.524 321.113M39.2203 238.037L24.7772 136.352M39.2203 238.037L52.8863 334.251M24.7772 136.352L24 130.88L80.1303 122.919M24.7772 136.352L137.038 120.431M53.6635 339.723L52.8863 334.251M80.1303 122.919L91.0825 121.366L91.8597 126.838M80.1303 122.919L69.178 124.473L69.9552 129.945M52.8863 334.251L72.509 331.468M119.969 324.738L98.0643 327.844M119.969 324.738L125.445 323.961M119.969 324.738L120.746 330.21M98.0643 327.844L92.5882 328.621M98.0643 327.844L98.8415 333.316M125.445 323.961L124.15 314.841L91.2928 319.501L92.5882 328.621M125.445 323.961L145.524 321.113M92.5882 328.621L72.509 331.468M145.524 321.113L141.379 291.93L68.3639 302.285L72.509 331.468M91.8597 126.838L69.9552 129.945M91.8597 126.838L97.3358 126.062M69.9552 129.945L64.4791 130.721M97.3358 126.062L98.6312 135.181L65.7745 139.841L64.4791 130.721M97.3358 126.062L117.415 123.214L121.56 152.397L101.179 155.288M64.4791 130.721L44.4 133.569L48.5451 162.752L68.9263 159.862M68.9263 159.862L85.0526 157.575L101.179 155.288M68.9263 159.862C72.3807 165.911 79.286 169.557 86.607 168.518C93.928 167.48 99.5456 162.059 101.179 155.288M457.175 219.765V380.5M479.299 219.765V380.5M540.601 300.132H492.205M540.601 300.132V273.765V247.398H535.07M540.601 300.132V326.499V352.866H535.07M492.205 300.132V273.765V247.398H497.736M492.205 300.132V326.499V352.866H497.736M516.403 247.398V352.866M516.403 247.398H497.736M516.403 247.398H535.07M516.403 352.866H497.736M516.403 352.866H535.07M497.736 352.866V326.499M497.736 247.398V273.765M535.07 247.398V273.765M535.07 352.866V326.499M535.07 326.499H497.736M535.07 326.499V273.765M497.736 326.499V273.765M497.736 273.765H535.07M391.725 302.205V357.472H447.957V302.205M391.725 302.205V246.938H447.957V302.205M391.725 302.205H447.957M400.943 316.943V342.734H438.738V316.943M400.943 316.943H438.738M400.943 316.943V287.467M438.738 316.943V287.467M400.943 287.467V261.676H438.738V287.467M400.943 287.467H438.738M208.5 169.564V127.5M208.5 104.5V123.5V127.5M208.5 104.5H230V127.5H208.5M135.085 339.741L139.252 342.882M169.793 334.861L166.653 339.03M174.671 369.584L170.504 366.443M139.963 374.465L143.103 370.296M139.252 342.882L166.653 339.03M139.252 342.882L143.103 370.296M166.653 339.03L170.504 366.443M170.504 366.443L143.103 370.296M314.291 277.795C314.291 287.461 306.449 295.297 296.776 295.297C287.103 295.297 279.261 287.461 279.261 277.795C279.261 268.13 287.103 260.294 296.776 260.294C306.449 260.294 314.291 268.13 314.291 277.795ZM296.776 345.497H313.064C310.494 339.023 304.17 334.444 296.776 334.444C289.381 334.444 283.057 339.023 280.488 345.497H296.776ZM78.0096 232.536C79.3688 242.106 88.2346 248.763 97.8118 247.405C107.389 246.046 114.051 237.188 112.692 227.618C111.332 218.048 102.467 211.391 92.8895 212.749C83.3122 214.108 76.6503 222.967 78.0096 232.536ZM104.871 297.108L88.7452 299.395C90.3784 292.623 95.996 287.202 103.317 286.164C110.638 285.126 117.543 288.771 120.998 294.821L104.871 297.108Z" stroke="#787878" stroke-width="1.5"/>
<path d="M189.466 169.187V153.5H174.508M189.466 169.187H198.69M189.466 169.187L162.269 172.666M183.346 321.238L206.069 317.752L204.374 305.756L201.963 288.685L190.607 290.53M183.346 321.238L181.673 309.447L179.251 292.376M183.346 321.238L120.792 330.12L109.833 331.676L98.8747 333.232L92.1581 334.185M92.1581 334.185L53.6711 339.65L55.8051 356.153M92.1581 334.185L94.464 350.653M80.6287 380.5H58.9534L57.9391 372.657L57.8795 372.195M80.6287 380.5L79.2451 369.407L85.7016 368.564M80.6287 380.5H189.928H222.671V366.197V325.641M94.464 350.653L96.7699 367.12L85.7016 368.564M94.464 350.653L82.9346 352.293M55.8051 356.153L57.8795 372.195M55.8051 356.153L68.9973 354.276M198.69 169.187H222.671V183.028M198.69 169.187V183.028M174.508 153.5H159.55L162.269 172.666M174.508 153.5V171.1M222.671 214.633H198.69V200.561M222.671 214.633V200.561M222.671 214.633V228.244V246.238V260.079V325.641M198.69 183.028H222.671M198.69 183.028V200.561M222.671 183.028V200.561M198.69 200.561H222.671M57.8795 372.195L71.7905 370.38M179.251 292.376L177.419 279.457L176.208 270.922L174.997 262.386L169.761 225.476L166.554 202.868L165.375 194.563L162.888 177.03L162.269 172.666M179.251 292.376L190.607 290.53M190.607 290.53L194.707 319.495M82.9346 352.293L85.7016 368.564M82.9346 352.293L68.9973 354.276M85.7016 368.564L71.7905 370.38M68.9973 354.276L71.7905 370.38M170.832 342.251L169.793 334.861L135.085 339.741L139.963 374.465L174.671 369.584L170.832 342.251ZM170.832 342.251L184.393 339.898L205.579 336.253M170.832 342.251L205.579 336.253M205.579 336.253V325.641H222.671" stroke="#E7E7E7" stroke-width="1.5"/>
</svg>
